<?xml version="1.0" standalone="no"?>
<!DOCTYPE svg PUBLIC "-//W3C//DTD SVG 20010904//EN"
 "http://www.w3.org/TR/2001/REC-SVG-20010904/DTD/svg10.dtd">
<svg version="1.0" xmlns="http://www.w3.org/2000/svg"
 width="2480.000000pt" height="3508.000000pt" viewBox="0 0 2480.000000 3508.000000"
 preserveAspectRatio="xMidYMid meet">

<g transform="translate(0.000000,3508.000000) scale(0.100000,-0.100000)"
fill="#000000" stroke="none">
<path d="M10527 20965 c-27 -7 -58 -22 -69 -32 -11 -10 -29 -18 -41 -18 -13 0
-28 -13 -41 -37 -12 -21 -28 -46 -36 -55 -8 -10 -25 -40 -38 -66 -13 -26 -28
-45 -33 -42 -16 11 -10 31 32 104 45 77 44 107 -1 53 -16 -20 -29 -29 -32 -21
-3 9 -9 9 -25 1 -16 -9 -22 -9 -25 0 -6 18 -59 -7 -98 -47 l-33 -34 22 -36
c28 -48 27 -56 -4 -22 -29 30 -45 35 -45 12 0 -8 -7 -15 -15 -15 -18 0 -19
-23 -4 -52 12 -23 2 -39 -11 -18 -8 12 -10 12 -10 -4 0 -11 7 -27 16 -37 9
-10 14 -23 12 -30 -2 -6 -16 7 -31 30 -32 48 -63 57 -52 14 11 -46 11 -48 -11
-46 -15 2 -25 -7 -36 -30 -14 -30 -14 -36 14 -105 31 -77 33 -109 4 -47 -9 19
-22 35 -27 35 -15 0 -1 -58 23 -98 11 -17 18 -37 16 -44 -2 -6 -14 5 -26 26
-34 57 -46 38 -37 -58 3 -44 13 -112 21 -151 9 -38 17 -106 19 -150 4 -101 8
-125 24 -134 6 -4 9 -15 5 -24 -3 -10 -1 -24 6 -32 7 -9 10 -19 6 -22 -4 -4
-10 -3 -14 2 -4 6 -16 17 -26 25 -17 14 -17 11 3 -27 11 -23 21 -47 21 -53 0
-17 -21 -11 -40 13 -24 29 -32 19 -33 -43 -1 -44 -3 -49 -19 -44 -23 7 -35
-22 -20 -47 18 -29 15 -42 -19 -73 -26 -25 -30 -35 -28 -72 2 -25 -2 -49 -9
-56 -16 -16 -15 -31 7 -81 11 -23 22 -53 26 -67 7 -24 7 -24 -9 -5 -14 19 -15
18 -9 -20 l6 -40 -25 23 -25 23 -7 -38 c-11 -68 -7 -143 8 -149 14 -5 14 -49
0 -106 -4 -19 -2 -28 6 -28 8 0 10 -8 6 -24 -3 -14 -2 -27 4 -31 6 -4 6 -15 0
-31 -13 -34 -13 -111 0 -119 6 -4 11 -28 11 -53 1 -125 7 -211 18 -250 24 -87
13 -200 -30 -284 -29 -57 14 -338 51 -338 6 0 8 -10 4 -25 -4 -15 -2 -25 5
-25 6 0 11 -11 11 -24 0 -14 4 -27 9 -30 4 -3 11 -29 14 -57 4 -28 14 -63 24
-78 18 -27 20 -36 27 -110 3 -24 9 -48 15 -54 6 -6 11 -31 11 -57 1 -64 14
-116 53 -201 19 -41 42 -95 52 -121 10 -26 24 -53 31 -59 8 -6 14 -20 14 -30
0 -11 5 -19 11 -19 5 0 17 -16 24 -35 8 -19 24 -39 35 -45 12 -6 20 -21 20
-35 0 -14 4 -25 8 -25 4 0 14 -17 21 -37 13 -39 74 -146 97 -173 36 -40 104
-131 104 -137 0 -11 53 -86 78 -110 13 -13 29 -38 37 -56 7 -18 25 -45 39 -60
14 -15 26 -34 26 -41 0 -7 20 -42 45 -79 25 -37 45 -73 45 -81 0 -7 16 -33 35
-57 19 -25 32 -51 30 -60 -8 -23 42 -129 60 -129 11 0 15 -11 15 -41 0 -22 11
-65 25 -95 14 -30 25 -60 25 -67 0 -7 13 -29 29 -50 17 -22 27 -45 24 -56 -3
-10 2 -32 11 -49 15 -29 22 -67 47 -247 6 -44 22 -114 36 -155 20 -60 24 -86
19 -131 -5 -45 -2 -72 19 -135 15 -46 30 -123 35 -184 5 -58 18 -132 28 -165
17 -56 20 -60 51 -63 l34 -3 -5 133 c-6 142 -1 170 31 187 35 19 68 -2 81 -51
7 -23 24 -67 40 -98 15 -30 37 -91 49 -135 35 -128 85 -215 123 -215 25 0 33
26 18 58 -7 15 -16 43 -21 62 -4 19 -19 65 -33 101 -19 50 -26 90 -28 161 -3
104 6 128 49 128 53 0 91 -36 124 -120 12 -30 34 -77 50 -105 15 -27 33 -72
39 -100 7 -27 26 -80 43 -118 32 -72 56 -89 97 -67 26 14 24 31 -10 130 -43
122 -52 140 -72 140 -20 0 -23 11 -7 27 8 8 4 35 -15 100 -14 48 -26 102 -26
120 0 60 67 93 118 58 25 -18 110 -142 147 -215 14 -28 48 -84 76 -125 40 -60
55 -75 75 -75 54 0 42 66 -38 214 -44 82 -57 98 -81 103 -26 5 -28 9 -23 35 4
19 -1 42 -13 66 -10 20 -24 56 -30 79 -19 69 -69 111 -98 82 -15 -15 -86 23
-113 61 -20 28 -77 66 -86 58 -2 -3 7 -20 21 -38 14 -19 25 -39 25 -46 0 -12
-69 -44 -94 -44 -21 0 -56 48 -49 66 3 9 -4 28 -15 43 -16 22 -18 31 -9 40 9
9 9 16 -1 31 -10 17 -10 20 2 20 24 0 29 20 11 40 -15 16 -15 22 -5 35 10 12
10 18 -1 31 -11 14 -11 18 5 29 15 11 15 16 5 34 -11 17 -10 23 4 39 15 17 15
19 0 35 -14 13 -14 19 -3 32 11 13 11 20 0 40 -10 19 -10 27 -1 39 10 11 9 19
0 34 -10 16 -10 23 0 36 8 9 10 26 6 44 -4 22 -2 31 11 36 16 6 15 8 -1 26
-18 20 -18 21 1 34 18 14 18 15 1 34 -18 20 -18 21 3 32 18 10 19 14 8 27 -7
9 -13 25 -13 36 0 36 -25 31 -27 -5 0 -18 -2 -44 -3 -58 -2 -14 -8 -108 -14
-210 -13 -207 -30 -368 -41 -389 -5 -8 -6 14 -4 50 4 56 13 229 31 580 l5 106
-52 52 c-29 28 -62 51 -74 51 -15 0 -17 3 -8 12 7 7 12 22 12 34 0 32 -32 84
-52 84 -24 0 -30 15 -13 30 13 11 12 16 -8 40 -12 16 -39 54 -59 87 -38 59
-122 168 -180 232 -18 20 -61 72 -96 116 -35 44 -99 125 -142 180 -44 55 -112
145 -152 200 -40 56 -88 121 -106 145 -18 25 -59 83 -92 130 -32 47 -75 105
-95 130 -19 25 -50 68 -69 95 -19 28 -41 57 -50 64 -9 7 -16 19 -16 25 0 7
-14 25 -30 41 -21 21 -27 32 -19 39 10 11 15 7 79 -75 14 -17 39 -46 57 -64
17 -18 42 -50 56 -71 13 -22 35 -48 47 -59 l23 -20 -7 25 c-4 14 -14 47 -22
74 -8 28 -16 58 -20 68 -3 10 -1 18 4 18 20 0 68 -149 58 -177 -6 -14 62 -108
71 -100 2 3 -3 39 -12 82 -9 42 -14 79 -11 82 13 13 66 -157 66 -212 0 -33 52
-106 66 -92 4 4 3 27 -3 52 -6 24 -8 47 -5 50 12 11 52 -92 52 -133 0 -28 9
-56 25 -82 32 -50 45 -51 38 -2 -4 28 -3 34 6 26 18 -17 40 -87 32 -99 -9 -11
14 -50 91 -162 26 -37 51 -80 57 -95 6 -16 16 -28 24 -28 7 0 21 -13 30 -30
10 -16 22 -30 26 -30 5 0 21 -19 36 -41 26 -41 80 -99 91 -99 7 0 -5 21 -27
45 -9 11 -29 51 -43 89 -14 37 -35 84 -45 105 -11 20 -60 122 -111 226 -50
105 -95 198 -100 207 -6 10 -7 24 -4 32 3 8 -1 28 -9 43 -27 52 -47 104 -47
121 0 10 -6 24 -12 31 -11 10 -10 11 5 6 9 -4 17 -3 17 3 0 28 -72 324 -91
372 -26 69 -21 126 27 264 19 55 34 106 34 114 0 7 8 26 18 40 24 34 48 105
56 160 4 23 20 76 36 117 36 90 35 89 10 82 -27 -7 -25 -1 11 67 29 54 31 63
27 132 -3 41 -2 77 2 79 4 3 10 19 13 37 2 18 14 77 25 130 31 143 39 258 20
272 -13 10 -14 26 -6 115 7 74 7 106 -1 114 -17 17 -13 37 6 30 14 -5 15 -1 9
35 -14 88 37 249 113 362 17 25 31 52 31 60 0 8 7 24 15 34 8 11 15 29 15 39
0 11 7 25 15 31 28 20 40 144 26 268 -17 158 -20 170 -42 163 -14 -5 -19 -1
-19 12 0 11 -5 24 -10 29 -7 7 -7 19 -2 35 20 53 -10 121 -41 90 -34 -34 -58
11 -25 46 27 29 16 56 -26 61 -21 3 -26 -1 -26 -17 0 -12 -3 -21 -8 -21 -10 0
-34 -70 -34 -100 0 -14 -6 -32 -13 -40 -7 -8 -18 -35 -25 -59 -6 -24 -22 -69
-36 -99 -13 -30 -24 -62 -24 -72 0 -10 -7 -23 -15 -30 -8 -7 -15 -24 -15 -37
0 -17 -7 -27 -20 -30 -14 -4 -19 -11 -15 -23 3 -9 -3 -24 -15 -35 -11 -10 -20
-24 -20 -31 0 -7 -9 -16 -21 -19 -14 -5 -19 -13 -16 -25 3 -13 0 -17 -9 -13
-8 3 -14 7 -14 9 0 10 35 59 47 67 7 4 13 19 13 33 0 14 16 60 36 102 19 42
41 91 48 107 7 17 28 61 45 99 44 94 101 264 101 301 0 30 -52 115 -70 115
-12 0 -40 -76 -40 -110 0 -16 -4 -32 -10 -35 -5 -3 -10 1 -10 10 0 13 -43 88
-60 105 -3 3 -18 30 -33 60 -37 72 -63 104 -82 97 -8 -4 -17 -2 -20 3 -9 14
-101 11 -158 -5z m35 -100 c5 -30 34 -31 42 -1 4 15 10 26 15 26 8 0 61 -71
61 -82 0 -3 16 -35 36 -70 20 -34 54 -97 75 -139 l40 -77 -26 -56 c-14 -32
-32 -59 -39 -62 -8 -3 -11 -15 -8 -31 3 -18 1 -24 -8 -21 -8 2 -17 11 -20 19
-13 26 -37 84 -56 129 -10 25 -24 52 -31 61 -7 8 -13 23 -13 31 0 9 -6 21 -14
27 -8 7 -17 24 -21 39 l-7 27 -19 -24 c-10 -13 -19 -29 -19 -36 0 -18 -67
-130 -87 -147 -9 -7 -29 -13 -45 -13 -22 0 -28 5 -28 21 0 12 -7 27 -15 34
-17 14 -21 35 -4 24 8 -4 9 1 4 15 -4 13 -1 31 7 44 8 12 22 41 31 64 9 22 34
71 57 107 22 37 40 69 40 72 0 3 8 16 18 29 18 25 28 22 34 -10z m-292 -45 c0
-5 -5 -10 -11 -10 -5 0 -7 5 -4 10 3 6 8 10 11 10 2 0 4 -4 4 -10z m-66 -243
c23 -37 14 -46 -10 -10 -22 33 -44 73 -44 80 0 7 30 -32 54 -70z m410 -47 c27
-58 28 -62 11 -80 -14 -15 -21 -17 -32 -9 -10 9 -17 8 -28 -1 -12 -10 -18 -10
-30 0 -16 14 -20 40 -6 40 5 0 12 -6 15 -12 5 -10 7 -10 12 -1 3 8 15 11 30 7
13 -3 24 -2 24 4 0 14 -24 22 -49 15 -13 -3 -21 -1 -21 8 0 16 33 88 41 89 3
0 18 -27 33 -60z m-484 -21 c0 -20 -26 11 -35 41 l-7 25 21 -27 c11 -14 21
-32 21 -39z m-116 5 c4 -9 4 -19 2 -21 -8 -8 -26 8 -26 23 0 19 16 18 24 -2z
m1080 -10 c6 -17 -38 -64 -60 -64 -8 0 -14 9 -14 20 0 11 5 20 10 20 6 0 10
-4 10 -10 0 -5 7 -7 15 -4 8 4 15 14 15 23 0 15 8 31 16 31 1 0 5 -7 8 -16z
m-985 -34 c12 -22 21 -43 21 -47 0 -12 -37 43 -44 65 -11 35 0 26 23 -18z m51
-11 c0 -6 -4 -7 -10 -4 -5 3 -10 11 -10 16 0 6 5 7 10 4 6 -3 10 -11 10 -16z
m108 -14 c-3 -3 -9 2 -12 12 -6 14 -5 15 5 6 7 -7 10 -15 7 -18z m-215 0 c4
-8 2 -17 -3 -20 -6 -4 -10 3 -10 14 0 25 6 27 13 6z m387 -25 c0 -11 -4 -21
-9 -24 -13 -8 -34 21 -27 39 7 20 36 8 36 -15z m-240 -41 c0 -10 -7 -19 -15
-19 -8 0 -15 -5 -15 -11 0 -17 -17 -1 -23 21 -4 17 -3 19 9 9 11 -9 14 -8 15
2 2 19 1 21 -6 44 -6 18 -4 17 14 -4 12 -13 21 -32 21 -42z m492 -15 l37 -77
-21 -40 c-19 -38 -21 -40 -34 -22 -8 10 -14 28 -14 40 0 12 -5 26 -11 32 -6 6
-15 29 -19 50 -5 21 -11 48 -15 60 -7 20 -3 23 35 32 3 0 22 -33 42 -75z
m-143 50 c7 -6 -11 -25 -22 -21 -6 2 -22 -8 -34 -21 -27 -29 -29 -23 -7 24 13
28 21 33 38 28 11 -4 23 -8 25 -10z m-248 -26 c11 -21 11 -22 -4 -9 -10 7 -17
17 -17 22 0 15 9 10 21 -13z m744 -9 c0 -8 -10 -14 -25 -14 -20 0 -26 -6 -28
-28 -4 -31 -25 -32 -30 -1 -1 12 9 27 30 41 36 24 53 24 53 2z m-958 -21 c-3
-8 -6 -5 -6 6 -1 11 2 17 5 13 3 -3 4 -12 1 -19z m503 7 c0 -7 -6 -18 -12 -22
-7 -4 -24 -30 -37 -58 -16 -32 -26 -44 -28 -33 -2 9 7 34 20 55 13 21 26 46
30 56 8 21 27 23 27 2z m-360 -26 c0 -5 -4 -9 -10 -9 -5 0 -10 7 -10 16 0 8 5
12 10 9 6 -3 10 -10 10 -16z m-35 -39 c3 -11 11 -20 16 -20 5 0 9 -12 9 -27
-1 -27 -1 -27 -25 12 -27 43 -30 55 -16 55 5 0 13 -9 16 -20z m42 -12 c-3 -8
-6 -5 -6 6 -1 11 2 17 5 13 3 -3 4 -12 1 -19z m253 13 c0 -6 -4 -13 -10 -16
-5 -3 -10 1 -10 9 0 9 5 16 10 16 6 0 10 -4 10 -9z m130 -41 c0 -9 7 -25 15
-36 23 -31 19 -94 -11 -138 -20 -29 -29 -35 -38 -26 -8 8 -5 16 13 29 14 11
21 23 17 30 -4 7 -2 18 4 26 9 11 7 28 -9 77 -25 75 -27 102 -6 74 8 -11 15
-27 15 -36z m-490 25 c0 -8 -4 -15 -10 -15 -5 0 -10 7 -10 15 0 8 5 15 10 15
6 0 10 -7 10 -15z m866 -22 c-7 -17 -8 -17 -17 0 -12 21 -2 44 13 29 6 -6 8
-19 4 -29z m-616 -76 c0 -6 -7 -2 -15 9 -8 10 -14 30 -14 44 0 23 1 22 14 -9
8 -18 15 -38 15 -44z m574 57 c13 -5 13 -8 1 -20 -19 -19 -25 -18 -25 6 0 22
1 23 24 14z m-662 -72 c10 -31 18 -66 18 -77 -1 -23 -39 75 -47 120 -9 47 9
21 29 -43z m275 48 c-3 -13 0 -20 9 -20 18 0 18 -14 0 -29 -10 -9 -16 -8 -26
4 -11 13 -11 20 0 40 16 30 24 32 17 5z m385 -62 c-15 -15 -24 -6 -16 16 5 12
10 14 17 7 8 -8 8 -14 -1 -23z m-764 -39 c-3 -8 -7 -3 -11 10 -4 17 -3 21 5
13 5 -5 8 -16 6 -23z m712 7 c0 -8 -4 -17 -9 -20 -10 -7 -23 19 -14 28 11 11
23 6 23 -8z m-370 -62 c0 -8 -4 -12 -10 -9 -5 3 -10 13 -10 21 0 8 5 12 10 9
6 -3 10 -13 10 -21z m-250 -19 c0 -5 -5 -3 -10 5 -5 8 -10 20 -10 25 0 6 5 3
10 -5 5 -8 10 -19 10 -25z m630 26 c0 -5 -7 -14 -15 -21 -16 -14 -18 -10 -9
14 6 17 24 22 24 7z m-60 -45 c0 -3 -4 -8 -10 -11 -5 -3 -10 -1 -10 4 0 6 5
11 10 11 6 0 10 -2 10 -4z m-140 -97 c-7 -11 -14 -18 -17 -15 -3 3 0 12 7 21
18 21 23 19 10 -6z m-30 -3 c0 -3 -4 -8 -10 -11 -5 -3 -10 -1 -10 4 0 6 5 11
10 11 6 0 10 -2 10 -4z m-323 -68 c-3 -8 -6 -5 -6 6 -1 11 2 17 5 13 3 -3 4
-12 1 -19z m-362 -250 c17 -28 39 -68 50 -87 12 -20 37 -61 56 -91 20 -30 43
-75 53 -99 9 -24 26 -55 37 -69 10 -14 19 -30 19 -36 0 -6 23 -57 50 -114 28
-57 50 -110 50 -117 0 -8 9 -34 19 -57 33 -73 48 -111 61 -153 7 -22 16 -50
21 -63 5 -13 9 -35 9 -50 0 -15 7 -36 15 -46 8 -11 15 -32 15 -47 0 -15 7 -40
15 -55 8 -16 12 -37 9 -47 -3 -10 -1 -23 4 -30 14 -18 21 -57 11 -57 -5 0 -9
6 -9 14 0 7 -7 19 -15 26 -8 7 -15 23 -15 37 0 29 -17 63 -31 63 -6 0 -7 -14
-3 -35 4 -23 2 -35 -5 -35 -6 0 -11 9 -11 20 0 12 -6 33 -14 48 -20 40 -76
207 -76 227 0 9 -7 31 -16 48 -31 59 -34 67 -34 84 0 10 -7 27 -15 37 -19 25
-19 46 -1 46 22 0 27 15 15 49 -15 42 -43 43 -34 1 4 -16 4 -30 2 -30 -11 0
-66 98 -82 144 -9 27 -34 86 -57 130 -77 152 -89 178 -85 183 3 2 15 -14 28
-36 12 -23 29 -41 36 -41 22 0 14 36 -15 68 -15 16 -26 35 -24 42 4 12 -16 57
-55 122 -13 21 -23 42 -23 48 0 23 17 7 45 -42z m505 -70 c0 -18 -2 -20 -9 -8
-6 8 -7 18 -5 22 9 14 14 9 14 -14z m-121 -92 c9 -10 8 -16 -4 -26 -13 -11
-15 -8 -15 14 0 30 3 32 19 12z m-492 -13 c4 -12 -46 -48 -54 -39 -3 3 2 17
11 31 17 26 36 29 43 8z m536 -64 c1 -29 -2 -53 -8 -55 -12 -4 -55 59 -54 78
0 10 2 10 6 1 9 -24 21 -13 28 24 5 30 9 34 16 21 5 -10 11 -41 12 -69z m-488
-18 c3 -5 -5 -17 -17 -25 -26 -18 -37 -5 -16 18 15 18 25 20 33 7z m527 -53
c-7 -7 -12 -8 -12 -2 0 14 12 26 19 19 2 -3 -1 -11 -7 -17z m278 -1 c0 -7 -5
-18 -12 -25 -7 -7 -18 -12 -25 -12 -16 0 -17 22 -1 38 16 16 38 15 38 -1z
m-230 -57 c0 -87 -24 -111 -33 -33 -5 51 7 98 23 88 5 -3 10 -28 10 -55z
m-532 18 c20 -20 13 -34 -23 -45 -40 -13 -44 -4 -17 32 20 28 24 29 40 13z
m752 -14 c0 -2 -4 -12 -9 -22 -5 -9 -24 -53 -42 -97 -34 -84 -45 -102 -54 -93
-12 12 9 112 27 130 10 10 16 23 13 29 -10 16 20 54 44 56 11 1 21 0 21 -3z
m-702 -97 c2 -11 -6 -21 -23 -27 -39 -15 -50 -2 -24 26 25 27 42 27 47 1z
m-173 3 c3 -5 1 -10 -4 -10 -6 0 -11 5 -11 10 0 6 2 10 4 10 3 0 8 -4 11 -10z
m5 -75 c0 -8 -4 -15 -10 -15 -5 0 -10 7 -10 15 0 8 5 15 10 15 6 0 10 -7 10
-15z m204 -2 c8 -20 -1 -30 -36 -38 -33 -8 -37 8 -11 37 20 22 39 23 47 1z
m781 -3 c3 -5 1 -10 -4 -10 -6 0 -11 5 -11 10 0 6 2 10 4 10 3 0 8 -4 11 -10z
m-97 -51 c-8 -13 -26 -43 -41 -67 -15 -23 -25 -47 -21 -53 3 -6 -3 -17 -15
-25 -12 -8 -21 -21 -21 -28 0 -16 -28 -41 -36 -33 -4 3 10 31 30 61 20 30 36
57 36 60 0 14 74 129 77 120 2 -6 -2 -22 -9 -35z m-650 -25 c2 -16 -4 -24 -26
-32 -43 -15 -56 -1 -30 31 25 32 52 32 56 1z m712 0 c0 -8 -5 -12 -10 -9 -6 4
-8 11 -5 16 9 14 15 11 15 -7z m-860 -49 c24 -59 23 -76 -3 -50 -9 8 -20 15
-26 15 -6 0 -11 4 -11 9 0 5 -3 17 -7 27 -5 13 -3 15 7 9 10 -6 11 -2 6 19
-12 47 11 27 34 -29z m178 -18 c17 -20 -1 -37 -44 -44 l-39 -6 29 32 c33 35
39 37 54 18z m652 -7 c0 -5 -4 -10 -10 -10 -5 0 -10 5 -10 10 0 6 5 10 10 10
6 0 10 -4 10 -10z m-835 -50 c3 -5 1 -10 -4 -10 -6 0 -11 5 -11 10 0 6 2 10 4
10 3 0 8 -4 11 -10z m802 -16 c-9 -9 -28 6 -21 18 4 6 10 6 17 -1 6 -6 8 -13
4 -17z m-732 -59 c18 -41 43 -105 56 -142 12 -37 32 -99 44 -138 23 -68 37
-129 41 -170 1 -11 11 -44 23 -73 22 -55 28 -122 11 -122 -20 0 -70 66 -75
100 -3 19 -13 59 -22 87 -13 42 -14 58 -5 78 7 14 12 34 11 43 0 14 -2 14 -8
-2 -9 -23 -19 -11 -32 38 -4 17 -22 69 -39 116 -17 47 -36 108 -41 135 -6 28
-15 60 -21 72 -8 17 -8 26 2 38 7 8 14 15 16 15 3 0 20 -34 39 -75z m140 39
c0 -19 -49 -44 -62 -31 -9 9 38 58 51 54 6 -2 11 -12 11 -23z m563 -33 c3 -8
-1 -12 -9 -9 -7 2 -15 10 -17 17 -3 8 1 12 9 9 7 -2 15 -10 17 -17z m-430 -48
c11 -33 0 -48 -12 -15 -23 64 -25 76 -12 61 7 -8 18 -29 24 -46z m-428 17 c0
-5 -4 -10 -10 -10 -5 0 -10 5 -10 10 0 6 5 10 10 10 6 0 10 -4 10 -10z m330
-5 c19 -23 2 -35 -54 -38 l-48 -3 31 28 c36 32 53 35 71 13z m490 -11 c0 -8
-4 -12 -10 -9 -5 3 -10 10 -10 16 0 5 5 9 10 9 6 0 10 -7 10 -16z m-755 -63
c-8 -17 -20 -31 -25 -31 -14 0 -13 4 12 46 25 43 37 30 13 -15z m729 14 c3 -9
0 -15 -9 -15 -8 0 -15 7 -15 15 0 8 4 15 9 15 5 0 11 -7 15 -15z m-430 -40
c-7 -16 -58 -30 -75 -19 -21 12 41 55 62 43 10 -5 16 -16 13 -24z m-364 -15
c0 -5 -5 -10 -11 -10 -5 0 -7 5 -4 10 3 6 8 10 11 10 2 0 4 -4 4 -10z m380
-60 c0 -11 -30 -21 -42 -14 -7 5 -4 12 7 20 18 13 35 10 35 -6z m30 -74 c0
-15 -21 -26 -52 -26 -20 0 -21 1 -3 20 21 23 55 27 55 6z m110 -54 c0 -15 -2
-15 -10 -2 -13 20 -13 33 0 25 6 -3 10 -14 10 -23z m-87 -37 c1 -5 -13 -11
-30 -13 -31 -3 -42 6 -26 22 10 10 53 3 56 -9z m-368 -16 c4 -6 13 -8 21 -5 8
3 14 1 14 -4 0 -5 15 -26 33 -46 17 -21 25 -33 16 -28 -29 17 -112 94 -101 94
6 0 14 -5 17 -11z m578 -59 c3 -11 2 -20 -2 -20 -10 0 -31 37 -24 44 9 9 20
-2 26 -24z m-201 5 c2 -12 -49 -31 -59 -22 -9 9 28 37 45 34 7 -1 14 -6 14
-12z m-237 -65 c27 -30 12 -34 -15 -5 -13 14 -19 25 -13 25 5 0 18 -9 28 -20z
m263 -11 c4 -20 -37 -32 -69 -21 l-22 9 24 17 c29 20 63 17 67 -5z m16 -65 c9
-24 -2 -34 -40 -34 -41 0 -44 14 -6 34 35 19 39 19 46 0z m16 -79 c24 -28 6
-43 -44 -35 -61 9 -66 17 -25 34 43 19 54 19 69 1z m97 -27 c-3 -8 -6 -5 -6 6
-1 11 2 17 5 13 3 -3 4 -12 1 -19z m-335 -37 c-7 -4 -8 -12 -1 -21 7 -12 11
-13 18 -2 6 11 21 3 62 -34 154 -136 295 -304 456 -544 100 -149 119 -189 62
-128 -23 24 -28 27 -19 10 41 -82 -60 23 -117 121 -12 21 -29 45 -38 53 -8 8
-15 19 -15 22 0 4 -21 30 -47 57 -27 27 -78 90 -115 139 -37 50 -79 102 -93
116 -30 30 -31 37 -7 42 13 3 9 8 -15 21 -18 10 -33 24 -33 32 0 18 -35 55
-52 55 -7 0 -2 -7 10 -16 24 -17 29 -34 10 -34 -17 1 -51 48 -43 60 3 5 0 7
-8 5 -7 -3 -21 3 -31 14 -15 17 -16 22 -4 34 7 8 17 13 22 10 4 -3 3 -8 -2
-12z m256 -28 c3 -18 -2 -23 -18 -23 -12 0 -31 5 -42 11 -21 11 -21 12 -2 26
27 20 58 13 62 -14z m-240 -79 c23 -25 42 -50 42 -55 0 -17 -41 15 -61 49 -12
17 -25 32 -30 32 -5 0 -9 5 -9 10 0 20 18 9 58 -36z m247 6 c3 -5 1 -10 -4
-10 -6 0 -11 5 -11 10 0 6 2 10 4 10 3 0 8 -4 11 -10z m205 -114 c0 -7 -3 -16
-6 -19 -9 -8 -42 55 -36 67 6 11 42 -31 42 -48z m-368 25 c2 -5 40 -48 85 -97
46 -49 93 -103 105 -121 13 -17 50 -67 83 -110 33 -43 78 -106 99 -138 22 -33
51 -72 65 -87 13 -15 22 -30 19 -33 -6 -6 -108 109 -108 122 0 5 -11 20 -25
33 -14 13 -25 29 -25 36 0 8 -13 23 -30 35 -16 12 -27 25 -25 29 2 3 -22 34
-54 68 -32 35 -64 74 -71 87 -7 14 -19 25 -25 25 -7 0 -18 14 -25 30 -7 17
-18 34 -24 38 -13 8 -66 78 -66 86 0 9 18 7 22 -3z m-172 -116 c0 -5 -14 5
-30 23 -17 18 -30 38 -30 45 1 6 14 -4 30 -23 17 -19 30 -39 30 -45z m550 -17
c0 -44 -24 -29 -28 17 -3 34 -2 37 12 26 9 -8 16 -27 16 -43z m-443 -30 c-3
-8 -6 -5 -6 6 -1 11 2 17 5 13 3 -3 4 -12 1 -19z m43 -114 c13 -32 13 -44 0
-44 -8 0 -50 70 -50 85 0 15 42 -19 50 -41z m53 16 c3 -11 1 -18 -4 -14 -5 3
-9 12 -9 20 0 20 7 17 13 -6z m117 -129 c22 -66 20 -88 -5 -55 -19 24 -35 80
-35 119 1 38 11 22 40 -64z m-240 -201 c0 -5 -4 -10 -10 -10 -5 0 -10 5 -10
10 0 6 5 10 10 10 6 0 10 -4 10 -10z m635 0 c3 -5 1 -10 -4 -10 -6 0 -11 5
-11 10 0 6 2 10 4 10 3 0 8 -4 11 -10z m-5 -118 c-1 -14 -40 43 -40 58 0 8 9
0 20 -18 11 -18 20 -36 20 -40z m-455 -212 c3 -5 1 -10 -4 -10 -6 0 -11 5 -11
10 0 6 2 10 4 10 3 0 8 -4 11 -10z m155 -251 c0 -6 -4 -7 -10 -4 -5 3 -10 11
-10 16 0 6 5 7 10 4 6 -3 10 -11 10 -16z m40 -43 c0 -3 -4 -8 -10 -11 -5 -3
-10 -1 -10 4 0 6 5 11 10 11 6 0 10 -2 10 -4z m100 -107 c0 -5 -7 -9 -15 -9
-15 0 -20 12 -9 23 8 8 24 -1 24 -14z m-30 -60 c0 -5 -7 -9 -15 -9 -15 0 -20
12 -9 23 8 8 24 -1 24 -14z m94 -57 c3 -5 2 -19 -1 -32 -6 -22 -7 -23 -14 -4
-4 10 -8 25 -8 32 -1 14 15 16 23 4z m66 -11 c0 -6 -4 -13 -10 -16 -5 -3 -10
1 -10 9 0 9 5 16 10 16 6 0 10 -4 10 -9z m10 -82 c-7 -11 -14 -18 -17 -15 -3
3 0 12 7 21 18 21 23 19 10 -6z m175 -73 c41 -19 47 -25 32 -31 -11 -4 -23 -3
-30 4 -6 6 -18 11 -27 11 -9 0 -25 9 -35 20 -24 27 -5 26 60 -4z m202 -57 c72
-27 114 -49 126 -66 22 -29 16 -40 -16 -26 -12 6 -47 18 -77 28 -68 22 -180
75 -180 86 0 7 16 16 32 18 4 1 56 -17 115 -40z m-191 -140 l29 -32 -25 6
c-14 4 -31 7 -39 7 -8 0 -11 3 -8 6 3 4 2 15 -4 25 -16 31 13 23 47 -12z m108
-39 c34 -45 41 -48 49 -20 7 27 16 25 52 -8 24 -23 33 -27 47 -18 14 8 24 4
54 -24 24 -23 38 -31 41 -22 8 21 38 13 68 -18 l29 -30 -51 0 c-37 0 -54 5
-68 20 -11 12 -31 20 -51 20 -42 0 -64 9 -64 26 0 9 -12 14 -32 15 -31 0 -85
17 -63 18 25 3 -24 21 -55 21 -31 1 -33 2 -17 14 10 8 15 20 11 30 -12 31 21
16 50 -24z m156 30 c0 -5 -2 -10 -4 -10 -3 0 -8 5 -11 10 -3 6 -1 10 4 10 6 0
11 -4 11 -10z m130 -330 c8 -16 8 -20 -4 -20 -9 0 -14 8 -13 20 1 11 2 20 4
20 1 0 7 -9 13 -20z m110 -19 c52 -19 59 -26 53 -52 -6 -23 -5 -23 -48 -5 -24
10 -35 22 -35 35 0 12 -4 21 -10 21 -5 0 -10 -8 -10 -17 0 -22 -15 -6 -25 26
-6 21 -5 23 11 16 11 -4 39 -14 64 -24z m-155 -139 c39 -16 99 -44 134 -61
l64 -33 -6 -76 c-4 -43 -10 -128 -13 -190 -4 -62 -11 -115 -16 -118 -5 -3 -15
12 -24 33 -9 21 -33 74 -54 118 -21 44 -43 98 -49 120 -12 42 -15 118 -6 127
3 3 24 1 46 -5 61 -15 73 -41 66 -138 -5 -61 -4 -80 6 -76 8 2 12 33 13 95 l1
92 -63 40 c-35 22 -70 40 -78 40 -10 0 -17 -17 -21 -55 -8 -58 -21 -78 -32
-49 -4 10 -2 19 5 22 21 7 13 40 -19 77 -36 41 -53 37 -46 -11 4 -26 2 -32 -9
-27 -8 3 -18 -4 -23 -18 -7 -18 -10 -20 -10 -6 -1 10 6 34 14 54 8 19 15 47
15 60 0 29 0 29 105 -15z m63 13 c-3 -3 -9 2 -12 12 -6 14 -5 15 5 6 7 -7 10
-15 7 -18z m107 -25 c8 14 25 3 25 -17 0 -12 -3 -13 -14 -4 -10 9 -16 9 -21 1
-5 -8 -13 -6 -26 6 -27 24 -24 37 5 19 16 -11 26 -13 31 -5z m-226 -152 c11
-18 46 -71 76 -117 65 -100 75 -126 47 -133 -21 -6 -60 18 -48 29 3 4 -23 37
-60 74 l-66 66 7 57 c4 31 11 56 15 56 4 0 17 -15 29 -32z m118 -435 c-2 -25
2 -28 31 -31 27 -3 31 -6 22 -17 -7 -8 -8 -20 -4 -27 14 -23 13 -87 -2 -99
-21 -17 -62 -2 -78 29 -19 37 -23 136 -7 156 21 25 40 19 38 -11z"/>
<path d="M10562 20784 c4 -21 22 -23 26 -1 2 10 -3 17 -13 17 -10 0 -15 -6
-13 -16z"/>
<path d="M10586 20742 c-5 -8 1 -21 18 -37 14 -13 26 -30 26 -38 0 -8 9 -22
20 -32 11 -10 20 -16 20 -13 0 13 -52 98 -60 98 -5 0 -10 8 -12 18 -3 13 -5
14 -12 4z"/>
<path d="M10520 20695 c-10 -13 -9 -15 9 -15 11 0 21 4 21 9 0 18 -18 21 -30
6z"/>
<path d="M10495 20639 c-4 -6 -5 -13 -2 -16 7 -7 27 6 27 18 0 12 -17 12 -25
-2z"/>
<path d="M10461 20577 c-14 -18 -2 -30 16 -16 10 9 13 8 13 -1 0 -8 2 -11 5
-8 7 7 -5 38 -15 38 -4 0 -13 -6 -19 -13z"/>
<path d="M10427 20523 c-12 -11 -8 -23 8 -23 8 0 15 7 15 15 0 16 -12 20 -23
8z"/>
<path d="M10715 20520 c-3 -5 -1 -10 4 -10 6 0 11 5 11 10 0 6 -2 10 -4 10 -3
0 -8 -4 -11 -10z"/>
<path d="M10730 20456 c0 -2 7 -6 15 -10 8 -3 15 -1 15 4 0 6 -7 10 -15 10 -8
0 -15 -2 -15 -4z"/>
<path d="M10646 20381 c-4 -7 -5 -15 -2 -18 9 -9 19 4 14 18 -4 11 -6 11 -12
0z"/>
<path d="M10070 19353 c0 -4 9 -23 20 -41 26 -42 48 -32 23 11 -18 29 -43 48
-43 30z"/>
<path d="M10120 19255 c0 -14 32 -65 40 -65 13 0 13 26 0 51 -10 17 -40 28
-40 14z"/>
<path d="M10170 19145 c0 -14 31 -65 40 -65 18 0 21 22 6 45 -14 22 -46 35
-46 20z"/>
<path d="M10260 18928 c0 -7 9 -24 20 -38 16 -21 20 -23 25 -8 4 9 2 26 -5 37
-12 23 -40 29 -40 9z"/>
<path d="M10310 18817 c0 -18 27 -53 35 -46 10 11 -6 59 -21 59 -8 0 -14 -6
-14 -13z"/>
<path d="M10350 18713 c1 -10 7 -31 14 -48 12 -27 14 -28 21 -11 9 22 -5 68
-22 74 -8 2 -13 -4 -13 -15z"/>
<path d="M10380 18620 c0 -6 8 -25 17 -43 20 -37 30 -17 14 26 -10 26 -31 37
-31 17z"/>
<path d="M10120 18321 c0 -6 5 -13 10 -16 6 -3 10 1 10 9 0 9 -4 16 -10 16 -5
0 -10 -4 -10 -9z"/>
<path d="M11440 15686 c0 -9 5 -16 10 -16 6 0 10 4 10 9 0 6 -4 13 -10 16 -5
3 -10 -1 -10 -9z"/>
<path d="M10800 20911 c0 -5 5 -13 10 -16 6 -3 10 -2 10 4 0 5 -4 13 -10 16
-5 3 -10 2 -10 -4z"/>
<path d="M10830 20870 c0 -5 5 -10 11 -10 5 0 7 5 4 10 -3 6 -8 10 -11 10 -2
0 -4 -4 -4 -10z"/>
<path d="M10880 20780 c0 -5 5 -10 11 -10 5 0 7 5 4 10 -3 6 -8 10 -11 10 -2
0 -4 -4 -4 -10z"/>
<path d="M11970 19405 c-8 -2 -49 -9 -90 -15 -332 -54 -657 -319 -799 -651
-139 -328 -98 -758 100 -1045 129 -186 262 -297 489 -410 287 -142 508 -167
840 -97 52 12 200 81 271 129 137 91 268 232 348 375 143 256 160 608 44 919
-68 182 -141 311 -239 420 -228 256 -508 382 -838 379 -61 -1 -118 -3 -126 -4z
m341 -105 c120 -25 201 -54 237 -86 25 -21 25 -23 7 -24 -12 0 -45 6 -75 14
-287 75 -608 25 -840 -129 -135 -89 -265 -227 -343 -361 -111 -191 -159 -455
-123 -674 9 -52 17 -104 18 -114 6 -40 -20 -24 -41 24 -33 76 -61 240 -61 355
0 289 93 515 294 718 201 201 424 295 709 296 82 1 149 -5 218 -19z m53 -475
c135 -41 251 -175 305 -350 26 -85 29 -240 5 -323 -59 -206 -241 -379 -445
-423 -82 -17 -249 -7 -323 20 -132 47 -268 160 -315 261 -33 72 -41 229 -17
335 54 227 237 418 461 480 70 19 267 19 329 0z m468 -438 c29 -95 31 -282 4
-372 -32 -108 -85 -194 -171 -280 -114 -115 -210 -162 -378 -187 -76 -10 -102
-10 -180 4 -105 18 -200 51 -229 80 -11 11 -18 21 -16 24 3 2 39 -3 82 -11
367 -70 695 114 809 454 19 58 22 87 22 234 0 162 0 168 17 147 10 -12 28 -54
40 -93z"/>
<path d="M19270 19404 c-277 -49 -479 -206 -545 -424 -22 -75 -31 -262 -16
-342 20 -103 75 -202 161 -289 68 -70 89 -83 225 -150 83 -41 199 -92 260
-114 242 -88 300 -134 293 -230 -5 -62 -37 -108 -93 -138 -60 -31 -207 -30
-290 3 -75 29 -179 130 -215 208 -17 36 -30 52 -40 49 -27 -7 -410 -250 -410
-260 0 -28 90 -165 151 -231 79 -84 159 -141 297 -210 180 -90 315 -126 477
-126 172 0 300 36 427 119 116 76 183 160 230 287 18 49 21 80 21 189 -1 112
-4 140 -26 205 -86 254 -156 354 -322 458 -98 60 -189 102 -336 152 -140 48
-241 100 -257 132 -28 59 52 164 143 187 109 27 189 5 265 -73 39 -41 48 -45
76 -40 25 4 37 0 59 -20 l28 -26 41 37 c90 80 216 202 216 209 0 5 -12 20 -27
36 -24 25 -25 30 -14 52 17 31 7 49 -67 117 -164 152 -348 228 -567 234 -66 2
-131 2 -145 -1z m291 -105 c95 -24 191 -66 197 -88 5 -15 5 -15 -131 13 -187
38 -385 0 -536 -104 -103 -70 -167 -156 -204 -275 -18 -58 -22 -92 -21 -197 1
-71 -2 -128 -7 -128 -34 0 -69 134 -69 260 0 109 20 188 69 274 63 110 219
221 352 250 102 22 249 20 350 -5z m-23 -845 c74 -24 176 -73 168 -82 -13 -12
-230 68 -279 103 -22 16 -22 16 8 9 17 -4 63 -18 103 -30z m252 -606 c42 -70
35 -166 -17 -235 -14 -18 -50 -45 -81 -60 -52 -26 -67 -28 -167 -28 -90 1
-120 5 -166 23 -124 50 -119 76 12 59 145 -18 263 23 329 114 16 23 32 58 35
78 15 94 23 101 55 49z m-795 -14 c29 -29 47 -63 42 -77 -9 -23 -235 -159
-254 -153 -10 3 -29 22 -42 41 -21 32 -23 38 -9 51 15 16 228 152 240 153 4 1
14 -6 23 -15z"/>
<path d="M4611 19377 c-8 -11 -10 -292 -9 -1078 l3 -1064 75 -5 c65 -4 76 -8
85 -27 9 -22 15 -22 191 -25 99 -2 188 -2 198 0 15 3 16 84 16 1012 l0 1008
-25 16 c-22 14 -24 24 -27 93 l-3 78 -246 3 c-199 2 -248 0 -258 -11z m400
-87 c21 -12 25 -50 7 -68 -8 -8 -52 -12 -130 -12 l-118 0 0 -924 c0 -508 -3
-931 -6 -940 -4 -9 -18 -16 -34 -16 -16 0 -30 7 -34 16 -3 9 -6 447 -6 974 0
903 1 960 18 969 23 14 278 14 303 1z"/>
<path d="M5472 19382 c-10 -7 -12 -229 -10 -1078 l3 -1069 60 -3 c84 -3 105
-9 105 -31 0 -13 10 -20 38 -25 48 -8 325 -8 346 0 14 6 16 71 16 640 0 559 2
634 15 634 8 0 22 -8 30 -17 8 -10 207 -283 443 -608 l429 -590 53 -5 c37 -4
57 -12 70 -27 16 -20 26 -21 216 -23 109 -1 205 -1 212 -1 9 1 12 210 12 1010
l0 1009 -25 16 c-23 15 -25 23 -25 85 0 46 -5 72 -14 80 -9 8 -86 11 -257 9
l-244 -3 -3 -642 c-2 -543 -4 -643 -16 -643 -8 0 -110 132 -228 293 -348 474
-558 762 -636 870 -41 56 -81 108 -90 115 -18 14 -478 18 -500 4z m462 -103
c15 -12 26 -30 26 -44 l0 -25 -162 -2 -163 -3 -5 -935 -5 -935 -29 -3 c-16 -2
-32 2 -37 10 -5 7 -9 446 -9 975 0 906 1 963 18 972 9 6 87 11 178 11 148 0
163 -2 188 -21z m1420 5 c19 -19 20 -35 4 -57 -11 -13 -34 -17 -128 -19 l-115
-3 -5 -694 c-4 -509 -8 -695 -16 -698 -7 -2 -23 11 -35 29 l-24 33 -3 700 c-2
651 -1 701 15 712 11 9 60 13 154 13 112 0 141 -3 153 -16z"/>
<path d="M7795 19378 c-3 -7 -4 -492 -3 -1078 l3 -1065 73 -3 c66 -3 74 -5 82
-26 5 -13 15 -26 23 -29 20 -8 350 -9 370 -1 16 6 17 43 17 440 0 372 2 434
15 434 13 0 46 -38 219 -249 34 -40 77 -93 96 -116 19 -23 60 -73 90 -110 30
-37 71 -87 90 -110 19 -23 60 -73 90 -111 91 -113 104 -124 146 -124 28 0 46
-7 67 -27 l28 -28 237 -3 c130 -2 246 -1 258 2 18 5 21 12 20 48 -2 59 -18 79
-491 628 -431 500 -428 496 -417 515 4 7 185 193 402 413 217 221 396 408 398
417 3 11 -6 15 -36 15 -21 0 -41 3 -45 6 -7 7 13 54 24 54 4 0 26 23 50 51 34
41 39 53 28 60 -8 5 -154 9 -325 9 l-311 0 -70 -72 c-85 -89 -302 -322 -437
-470 -54 -59 -105 -108 -112 -108 -11 0 -14 42 -14 229 l0 229 -25 16 c-23 15
-25 23 -25 90 0 58 -3 75 -16 80 -9 3 -123 6 -255 6 -183 0 -241 -3 -244 -12z
m406 -88 c21 -12 25 -50 7 -68 -8 -8 -52 -12 -130 -12 -65 0 -119 -1 -120 -2
-2 -2 -5 -424 -8 -938 l-5 -935 -30 0 -30 0 -3 970 c-2 903 -1 971 15 983 21
15 275 17 304 2z m1214 -15 c0 -11 -15 -29 -34 -42 -31 -21 -46 -23 -152 -23
l-118 0 -102 -112 c-320 -350 -623 -668 -633 -665 -16 5 -20 122 -4 151 11 21
190 216 448 491 47 50 109 116 138 147 29 32 60 62 70 67 10 7 90 10 202 8
176 -2 185 -3 185 -22z"/>
<path d="M13285 19377 c-3 -7 -4 -114 -3 -237 l3 -225 73 -3 c67 -3 74 -5 82
-27 l10 -25 158 0 c111 0 163 -4 175 -12 16 -12 17 -75 20 -813 l2 -800 75 -5
c66 -4 76 -8 85 -27 9 -22 14 -23 160 -24 82 0 164 -2 180 -4 17 -3 38 -2 48
1 16 5 17 54 17 834 0 824 0 829 20 840 12 6 44 10 73 8 29 -1 136 -1 240 0
l187 2 0 169 c0 164 -1 169 -22 183 -20 13 -24 27 -28 94 l-5 79 -773 3 c-620
2 -774 0 -777 -11z m1449 -83 c10 -4 16 -18 16 -40 0 -19 -1 -35 -2 -36 -2 -2
-295 -5 -653 -8 l-650 -5 -5 -95 -5 -95 -30 0 -30 0 -3 134 c-2 101 1 136 10
143 15 9 1328 11 1352 2z m-780 -450 c14 -14 16 -96 16 -753 0 -560 -3 -740
-12 -749 -17 -17 -55 -15 -62 4 -11 29 -7 1474 4 1495 13 23 33 24 54 3z"/>
<path d="M15002 19382 c-10 -7 -12 -229 -10 -1078 l3 -1069 75 -5 c66 -4 76
-8 85 -27 6 -15 19 -23 35 -24 123 -5 338 -7 353 -3 16 5 17 33 17 414 0 394
1 410 19 420 13 6 143 10 354 10 267 0 337 -3 346 -13 7 -10 12 -133 13 -393
l3 -379 73 -3 c66 -3 74 -5 84 -27 l11 -25 192 0 193 0 4 523 c2 287 2 743 0
1014 -4 472 -5 493 -23 498 -16 6 -19 17 -19 79 0 50 -4 77 -14 85 -9 8 -86
11 -257 9 l-244 -3 -5 -415 -5 -415 -360 0 -360 0 -3 321 -2 322 -25 16 c-23
15 -25 23 -25 90 0 58 -3 75 -16 80 -23 9 -477 7 -492 -2z m406 -94 c16 -16
15 -53 -1 -66 -7 -6 -64 -13 -128 -14 l-114 -3 -3 -924 c-1 -683 -5 -928 -14
-938 -6 -8 -23 -13 -37 -11 l-26 3 -3 970 c-2 903 -1 971 15 983 23 17 294 17
311 0z m1296 -4 c19 -18 20 -28 6 -55 -10 -17 -22 -19 -130 -19 l-120 0 -1
-362 c0 -377 -3 -444 -21 -465 -14 -17 -828 -19 -859 -3 -21 12 -26 54 -6 67
6 4 190 10 407 13 l395 5 3 405 c2 367 4 406 19 418 12 8 60 12 154 12 112 0
141 -3 153 -16z m-264 -1274 c13 -8 15 -58 18 -331 3 -345 2 -353 -47 -347
l-26 3 -3 329 c-2 328 0 356 32 356 6 0 18 -5 26 -10z"/>
<path d="M17162 19382 c-10 -7 -12 -229 -10 -1078 l3 -1069 75 -5 c66 -4 76
-8 85 -27 l10 -23 585 -2 c322 -2 600 -2 618 0 l32 3 0 159 c0 166 -3 190 -26
190 -20 0 -32 38 -26 82 2 21 1 49 -2 63 l-6 25 -378 0 c-281 0 -381 3 -390
12 -17 17 -17 279 0 296 9 9 103 12 360 12 l348 0 0 173 c0 169 0 172 -22 182
-21 9 -23 18 -26 88 -2 42 -4 78 -5 79 -1 1 -150 5 -332 8 l-330 5 -3 141 c-2
110 1 144 11 152 10 8 135 13 418 14 l404 3 3 168 2 167 -25 10 c-21 8 -25 16
-27 57 -1 27 -1 59 0 72 3 53 28 51 -677 51 -361 0 -662 -4 -669 -8z m1242
-98 c19 -18 19 -16 6 -48 l-9 -26 -538 -2 -538 -3 -5 -935 c-3 -514 -6 -936
-8 -938 -1 -2 -17 -2 -34 0 l-33 3 -3 970 c-2 903 -1 971 15 983 13 9 144 12
574 12 494 0 559 -2 573 -16z m-116 -836 c7 -7 12 -21 12 -33 0 -43 -11 -45
-290 -45 -279 0 -290 2 -290 45 0 43 11 45 290 45 194 0 269 -3 278 -12z m126
-853 c3 -8 1 -26 -4 -40 l-10 -25 -328 0 c-242 0 -331 3 -340 12 -13 13 -16
50 -5 61 3 4 158 7 344 7 291 0 338 -2 343 -15z"/>
<path d="M19986 16911 c-4 -6 -34 -20 -67 -32 -33 -12 -62 -25 -64 -30 -3 -4
4 -23 16 -43 19 -33 20 -47 17 -223 -2 -154 -6 -194 -20 -222 -10 -18 -15 -37
-12 -42 3 -5 52 -9 110 -9 93 0 104 2 104 18 0 10 -6 24 -12 30 -10 10 -14 86
-18 285 -5 269 -5 272 -27 275 -11 2 -24 -1 -27 -7z"/>
<path d="M11643 16835 c-3 -9 10 -30 33 -53 45 -43 137 -206 154 -271 13 -50
7 -112 -15 -155 -8 -15 -12 -32 -9 -37 3 -5 52 -9 110 -9 114 0 121 5 89 60
-8 14 -14 52 -15 87 0 56 6 73 56 173 31 60 74 128 95 150 59 61 54 70 -41 70
-61 0 -80 -3 -80 -14 0 -7 7 -19 15 -26 22 -18 19 -42 -16 -125 -39 -92 -57
-97 -89 -24 -31 74 -35 111 -15 142 9 14 14 31 10 36 -3 6 -60 10 -141 10
-109 0 -136 -3 -141 -14z"/>
<path d="M14124 16809 c-16 -17 -50 -42 -76 -55 -51 -26 -56 -37 -34 -70 10
-14 15 -61 18 -164 3 -154 10 -179 55 -199 77 -35 186 21 126 64 -22 16 -32
100 -25 213 5 89 6 94 31 104 25 9 25 10 7 23 -10 8 -23 16 -27 17 -8 3 -13
27 -18 86 -2 21 -26 13 -57 -19z"/>
<path d="M15262 16810 c-13 -16 -41 -39 -65 -51 -67 -34 -68 -36 -46 -72 16
-27 19 -51 19 -165 0 -78 5 -142 11 -155 31 -61 115 -77 166 -33 l28 24 -25
27 c-24 25 -25 34 -28 160 l-4 134 26 16 c32 21 33 29 1 43 -21 10 -25 18 -25
57 0 37 -3 45 -18 45 -10 0 -28 -13 -40 -30z"/>
<path d="M14949 16791 c-13 -10 -43 -28 -66 -40 -46 -23 -50 -33 -28 -71 10
-17 14 -59 15 -135 0 -143 7 -179 39 -211 23 -23 32 -26 79 -22 63 6 94 28 74
56 -34 46 -42 84 -42 186 0 121 3 134 39 148 25 9 26 10 6 23 -38 27 -45 36
-45 60 0 20 -5 25 -24 25 -13 0 -34 -8 -47 -19z"/>
<path d="M12402 16731 c-51 -13 -107 -56 -128 -98 -14 -27 -19 -59 -19 -115 1
-69 4 -81 30 -119 40 -56 93 -83 177 -87 154 -9 241 67 241 214 0 130 -71 202
-205 210 -35 2 -78 -1 -96 -5z m114 -52 c16 -18 19 -40 22 -148 3 -118 2 -128
-18 -154 -46 -58 -97 -12 -106 94 -16 166 39 278 102 208z"/>
<path d="M12915 16722 c-17 -11 -54 -27 -83 -36 -55 -18 -61 -29 -37 -60 11
-14 15 -46 15 -110 0 -110 12 -158 47 -186 43 -34 145 -21 182 23 20 25 37 21
51 -13 l12 -30 89 0 c95 0 99 3 75 48 -10 19 -17 84 -21 200 -6 128 -11 172
-20 172 -7 0 -37 -11 -67 -25 -29 -14 -61 -25 -71 -25 -25 0 -32 -25 -13 -52
21 -29 21 -146 2 -193 -11 -26 -21 -35 -38 -35 -55 1 -68 37 -68 189 0 78 -4
123 -12 134 -12 16 -15 16 -43 -1z"/>
<path d="M13464 16714 c-21 -13 -54 -27 -72 -30 -43 -8 -47 -18 -27 -61 25
-51 18 -242 -9 -271 -10 -12 -15 -26 -11 -31 8 -14 212 -15 220 -1 3 5 -2 24
-11 42 -21 40 -25 191 -6 225 32 57 79 69 125 33 14 -11 32 -20 41 -20 18 0
40 63 34 100 -7 52 -110 52 -159 -1 -34 -37 -48 -37 -55 0 -8 40 -23 43 -70
15z"/>
<path d="M14441 16730 c-78 -17 -129 -69 -104 -108 19 -31 42 -24 95 26 29 27
63 53 76 57 32 9 72 -18 72 -50 0 -30 -28 -50 -101 -71 -74 -22 -136 -59 -154
-94 -8 -16 -15 -50 -15 -75 0 -96 94 -136 185 -80 51 31 73 31 87 0 11 -24 15
-25 100 -25 96 0 101 3 73 56 -9 18 -15 58 -15 109 -1 143 -22 199 -88 238
-36 21 -147 30 -211 17z m143 -194 c7 -30 -2 -84 -20 -113 -17 -27 -65 -31
-88 -7 -18 18 -21 66 -6 94 13 24 57 49 86 50 15 0 24 -8 28 -24z"/>
<path d="M15580 16725 c-91 -29 -134 -94 -135 -201 0 -61 4 -77 30 -119 39
-62 88 -88 177 -93 114 -7 185 29 224 112 49 105 15 236 -73 284 -54 30 -160
38 -223 17z m134 -58 c18 -25 21 -42 21 -142 0 -100 -3 -117 -21 -142 -69 -92
-136 43 -106 215 17 101 61 129 106 69z"/>
<path d="M16111 16726 c-52 -17 -86 -47 -113 -100 -16 -32 -19 -54 -16 -117 3
-69 6 -81 34 -116 45 -55 85 -75 162 -81 168 -11 260 74 250 232 -5 78 -40
138 -100 168 -48 25 -160 32 -217 14z m127 -47 c25 -26 32 -62 32 -168 0 -109
-20 -156 -65 -156 -47 0 -65 46 -65 167 0 101 7 134 35 161 22 23 40 21 63 -4z"/>
<path d="M16833 16730 c-53 -11 -99 -35 -107 -55 -11 -30 -6 -63 10 -69 20 -8
42 4 79 44 46 49 81 64 116 50 33 -14 45 -41 30 -68 -11 -20 -30 -29 -121 -57
-95 -29 -150 -86 -150 -155 0 -38 24 -86 49 -100 34 -17 94 -11 140 15 54 31
66 31 87 0 15 -23 22 -25 98 -25 46 0 85 3 89 6 3 4 -1 21 -10 38 -11 21 -18
69 -22 151 -7 137 -25 180 -86 209 -42 20 -145 28 -202 16z m137 -230 c0 -82
-62 -128 -112 -83 -39 35 -8 111 56 138 42 18 56 4 56 -55z"/>
<path d="M17354 16721 c-16 -10 -53 -26 -82 -35 -55 -19 -62 -29 -36 -57 23
-25 21 -422 -2 -457 -27 -41 -15 -47 95 -48 113 -2 122 3 96 52 -9 17 -15 55
-15 97 0 57 3 67 18 67 9 0 26 -7 36 -15 25 -19 99 -19 135 0 68 34 101 104
101 211 0 68 -35 152 -73 177 -54 35 -134 29 -172 -13 -23 -25 -45 -26 -45 -1
0 33 -23 42 -56 22z m154 -104 c55 -58 43 -223 -18 -242 -72 -23 -114 128 -64
227 22 43 51 48 82 15z"/>
<path d="M17914 16725 c-10 -8 -41 -22 -69 -31 -74 -25 -77 -29 -53 -75 19
-37 20 -53 16 -232 -3 -167 -6 -196 -23 -220 -14 -22 -15 -31 -6 -36 15 -10
197 -8 207 1 3 4 -1 25 -10 48 -20 51 -22 148 -2 156 8 3 29 -2 47 -11 41 -21
115 -16 152 11 48 34 77 108 77 193 0 130 -56 206 -152 206 -38 0 -52 -5 -77
-29 -30 -29 -61 -30 -61 -3 0 26 -25 38 -46 22z m131 -91 c47 -18 68 -170 31
-226 -30 -46 -69 -48 -95 -5 -36 56 -30 171 11 214 23 25 28 26 53 17z"/>
<path d="M18505 16736 c-5 -3 -27 -7 -47 -11 -71 -11 -121 -78 -86 -113 20
-20 34 -14 88 38 29 28 63 53 76 56 33 8 74 -20 74 -51 0 -31 -26 -48 -110
-74 -123 -39 -164 -79 -164 -164 0 -43 4 -53 32 -78 41 -37 91 -38 151 -4 54
32 75 31 89 0 11 -24 16 -25 96 -25 47 0 88 4 91 10 3 5 -1 22 -8 37 -9 17
-16 71 -19 134 -8 179 -53 237 -191 245 -34 2 -66 2 -72 0z m103 -238 c2 -47
-1 -61 -18 -78 -42 -42 -110 -13 -110 48 0 36 62 94 97 90 27 -3 28 -6 31 -60z"/>
<path d="M19005 16724 c-11 -8 -46 -24 -77 -36 -61 -22 -67 -32 -43 -64 20
-26 20 -219 0 -254 -32 -55 -25 -60 89 -60 58 0 108 4 111 10 3 5 -1 22 -8 37
-20 39 -30 121 -22 178 14 91 82 132 142 85 34 -26 47 -25 61 5 20 43 15 93
-9 106 -34 18 -95 4 -134 -30 -20 -17 -40 -31 -45 -31 -5 0 -13 14 -18 32 -9
38 -20 43 -47 22z"/>
<path d="M19489 16727 c-95 -36 -145 -114 -137 -217 9 -120 80 -189 208 -198
85 -6 150 11 190 48 33 30 38 61 16 80 -12 9 -23 4 -60 -30 -70 -65 -147 -74
-176 -21 -14 27 18 61 58 61 51 0 127 29 156 59 61 64 38 163 -48 205 -49 24
-159 31 -207 13z m130 -62 c17 -35 18 -113 2 -143 -45 -84 -121 -17 -108 95 9
82 75 112 106 48z"/>
<path d="M6207 16590 l-1609 -5 -25 -29 c-29 -34 -25 -70 10 -99 21 -18 100
-19 2557 -13 1394 4 2549 9 2567 12 61 9 82 76 38 119 l-24 25 -953 -2 c-524
-2 -1677 -5 -2561 -8z"/>
<path d="M11910 15410 c-132 -37 -156 -52 -159 -96 -1 -6 18 -24 42 -40 23
-16 47 -35 52 -42 8 -10 17 -7 45 13 58 43 77 36 192 -72 70 -64 101 -80 137
-68 29 9 27 20 -21 92 -27 43 -53 70 -77 81 -20 9 -37 26 -40 37 -4 23 -67 97
-90 106 -9 4 -45 -2 -81 -11z"/>
</g>
</svg>
