<?xml version="1.0" standalone="no"?>
<!DOCTYPE svg PUBLIC "-//W3C//DTD SVG 20010904//EN"
 "http://www.w3.org/TR/2001/REC-SVG-20010904/DTD/svg10.dtd">
<svg version="1.0" xmlns="http://www.w3.org/2000/svg"
 width="2480.000000pt" height="3508.000000pt" viewBox="0 0 2480.000000 3508.000000"
 preserveAspectRatio="xMidYMid meet">

<g transform="translate(0.000000,3508.000000) scale(0.100000,-0.100000)"
fill="#000000" stroke="none">
<path d="M10990 19634 c-30 -8 -61 -16 -68 -17 -22 -5 -52 -36 -52 -53 0 -14
-3 -14 -15 -4 -9 7 -13 20 -10 29 3 11 0 10 -10 -3 -8 -11 -15 -17 -15 -13 0
9 -62 -22 -73 -37 -6 -7 -7 -4 -3 7 3 9 2 17 -2 17 -10 0 -51 -28 -79 -53
l-23 -20 21 -34 c11 -18 16 -33 11 -33 -5 0 -14 11 -20 25 -14 30 -37 34 -29
4 4 -15 2 -19 -8 -15 -27 10 -24 -11 10 -62 19 -28 47 -72 62 -99 14 -26 34
-61 43 -78 52 -93 129 -350 111 -368 -7 -7 -8 -3 -4 12 3 13 1 21 -6 21 -7 0
-9 5 -6 10 3 6 3 16 -2 23 -4 6 -8 19 -8 27 -1 28 -57 190 -65 185 -9 -6 0
-55 10 -55 4 0 10 -17 13 -37 2 -21 9 -53 16 -72 6 -19 7 -30 2 -25 -5 5 -19
41 -31 79 -42 130 -182 395 -209 395 -6 0 -15 -19 -22 -42 -6 -24 -16 -46 -22
-50 -7 -4 2 -33 26 -85 20 -43 37 -83 37 -87 0 -12 -32 33 -54 77 -20 39 -37
43 -19 4 36 -74 72 -154 77 -169 12 -38 -5 -15 -39 51 -49 98 -56 98 -49 -1 4
-46 10 -84 14 -86 4 -1 6 -18 4 -37 -1 -19 2 -35 7 -35 4 0 6 -7 3 -15 -4 -9
-1 -15 7 -15 10 0 10 -3 1 -12 -13 -13 -15 -63 -3 -93 5 -11 4 -25 -1 -32 -5
-7 -5 -14 2 -18 5 -3 10 -1 10 5 0 6 5 8 11 4 8 -5 8 -8 0 -14 -15 -9 -2 -42
13 -33 6 3 8 3 4 -2 -4 -4 -1 -20 8 -36 22 -44 9 -35 -23 16 -15 25 -32 45
-36 45 -5 0 1 -16 13 -35 20 -32 20 -36 5 -59 -9 -14 -14 -30 -10 -36 3 -5 4
-10 1 -10 -3 0 -13 14 -21 31 -9 17 -19 29 -22 26 -2 -3 1 -15 7 -27 13 -24 4
-43 -10 -20 -5 8 -12 12 -15 8 -10 -10 -16 -60 -6 -54 23 14 16 -24 -9 -47
-42 -40 -48 -111 -15 -177 14 -27 21 -50 16 -50 -4 0 -16 15 -25 33 -13 27
-16 29 -16 10 0 -13 5 -23 10 -23 6 0 10 -6 10 -12 1 -26 37 -90 45 -79 3 7 1
19 -6 27 -6 8 -9 17 -6 20 3 3 15 -12 27 -35 11 -23 16 -41 11 -41 -5 0 -12 6
-14 13 -2 6 -3 -1 -1 -18 3 -25 -3 -18 -36 37 -22 37 -45 70 -51 74 -7 4 -9
-40 -5 -142 2 -82 5 -151 6 -154 0 -3 10 6 21 20 20 24 20 24 -1 -18 -14 -28
-20 -58 -18 -85 l3 -42 34 54 c19 30 37 49 39 43 2 -7 8 -10 13 -6 17 10 9
-11 -17 -41 -25 -29 -25 -29 -8 -2 30 49 8 39 -25 -11 -32 -51 -38 -68 -20
-56 8 5 8 1 0 -14 -13 -24 -15 -45 -3 -38 9 5 9 -35 -1 -50 -3 -6 1 -39 9 -73
19 -84 19 -127 1 -180 -9 -25 -13 -49 -10 -54 3 -6 1 -7 -5 -3 -9 5 -12 -12
-12 -63 0 -74 18 -171 32 -171 4 0 8 -7 8 -16 0 -14 2 -15 17 -3 15 13 15 12
5 -8 -18 -33 -15 -48 5 -32 15 13 15 12 5 -8 -15 -27 -15 -46 -2 -38 5 3 9 -2
8 -12 -4 -28 13 -103 23 -103 8 0 25 -94 21 -117 -2 -7 2 -13 8 -13 5 0 10 5
10 12 0 6 3 9 6 6 3 -4 1 -16 -5 -27 -12 -22 1 -93 26 -141 7 -14 13 -31 13
-38 0 -7 5 -10 12 -6 7 4 8 3 4 -5 -4 -6 -1 -22 6 -34 8 -12 22 -44 32 -70 12
-31 23 -47 31 -43 9 3 11 -2 7 -16 -3 -14 -1 -19 6 -14 7 4 10 2 6 -7 -3 -8 6
-21 20 -31 16 -10 23 -22 20 -31 -4 -8 -1 -15 5 -15 6 0 11 -8 11 -17 0 -26
75 -148 88 -146 7 2 9 -4 5 -14 -5 -12 -2 -15 10 -10 11 4 14 2 10 -9 -3 -7 0
-14 7 -14 6 0 9 -3 7 -7 -7 -11 19 -33 27 -25 4 3 4 -1 1 -10 -4 -10 2 -25 14
-37 12 -12 21 -25 21 -31 0 -5 5 -10 10 -10 6 0 10 -7 10 -16 0 -8 5 -12 10
-9 6 3 10 -2 10 -13 0 -10 8 -27 18 -38 23 -24 103 -159 121 -201 7 -18 18
-30 24 -26 5 3 7 1 4 -4 -6 -9 36 -129 50 -143 2 -2 9 2 14 10 8 11 9 6 5 -20
-4 -22 0 -46 9 -64 8 -15 15 -35 15 -42 0 -8 5 -14 12 -14 6 0 8 -3 5 -7 -4
-3 2 -20 12 -37 10 -17 22 -47 26 -66 4 -19 11 -39 15 -45 4 -5 8 -17 9 -25 8
-89 33 -219 48 -248 13 -27 17 -56 16 -106 -2 -47 4 -90 17 -134 11 -35 20
-92 21 -126 0 -33 8 -83 18 -111 16 -45 21 -50 47 -50 l29 0 0 112 c0 117 7
140 42 129 19 -6 31 -33 89 -196 55 -155 90 -206 124 -185 16 10 12 34 -19
121 -31 85 -48 196 -37 239 5 18 13 25 31 25 32 0 62 -30 86 -88 11 -26 28
-63 38 -82 11 -19 25 -55 31 -80 7 -24 23 -66 36 -92 21 -40 29 -48 53 -48 48
0 57 22 31 75 -12 26 -22 58 -22 72 0 32 -26 63 -53 63 -20 1 -20 1 0 16 19
14 19 15 1 62 -38 97 -30 162 20 162 32 0 58 -28 118 -131 106 -180 127 -206
160 -193 30 12 26 40 -21 136 -40 83 -52 100 -75 105 -22 4 -28 11 -28 33 0
15 -11 58 -25 95 -23 64 -35 88 -35 70 0 -4 -7 -2 -15 5 -11 10 -19 10 -27 2
-15 -15 -37 -5 -92 47 -31 28 -51 40 -54 33 -2 -7 3 -21 12 -31 23 -25 20 -37
-13 -51 -32 -13 -76 -10 -76 5 0 6 -4 16 -8 23 -5 6 -6 16 -2 21 3 5 -3 17
-12 27 -13 12 -14 19 -5 22 16 5 16 29 0 35 -9 3 -7 9 6 19 19 15 19 15 0 26
-19 11 -19 11 1 26 19 13 19 15 3 21 -22 9 -24 25 -3 25 8 0 15 5 15 10 0 6
-4 10 -10 10 -5 0 -10 7 -10 15 0 8 5 15 10 15 14 0 12 27 -2 33 -10 4 -9 8 2
16 11 8 12 15 5 28 -9 15 -11 50 -6 94 0 5 6 7 11 4 15 -9 12 5 -5 22 -14 14
-14 16 2 28 15 11 15 15 4 29 -12 15 -8 20 12 17 14 -2 7 27 -9 33 -8 3 -12
10 -9 16 4 6 11 8 16 5 5 -4 9 -2 9 4 0 5 -5 13 -10 16 -6 3 -7 17 -4 31 4 14
2 24 -5 24 -16 0 -19 -22 -35 -289 -9 -135 -20 -249 -26 -255 -11 -11 -6 128
10 334 9 111 13 191 11 237 -1 13 -13 29 -30 39 -17 10 -28 21 -25 26 3 4 -12
8 -32 8 -32 0 -35 2 -22 13 32 25 31 54 -2 78 -16 13 -30 27 -30 32 0 5 8 3
17 -4 36 -29 -29 64 -130 187 -125 153 -263 329 -319 409 -23 33 -62 87 -87
120 -25 34 -66 89 -91 124 -25 35 -58 80 -74 98 -24 28 -27 36 -16 43 14 9 52
-29 113 -112 29 -41 49 -53 25 -15 -8 12 -20 50 -28 85 -8 39 -18 62 -26 62
-8 0 -14 5 -14 10 0 12 10 13 26 2 13 -8 54 -135 56 -173 1 -24 68 -123 76
-114 3 2 0 10 -6 18 -6 7 -16 35 -22 62 -6 28 -13 59 -16 70 -4 14 -3 17 4 10
14 -13 53 -155 46 -166 -5 -9 67 -111 74 -104 3 2 0 10 -5 17 -11 14 -34 100
-29 105 6 6 38 -89 40 -116 1 -16 20 -52 42 -82 23 -30 49 -70 59 -89 10 -19
26 -41 36 -48 11 -7 51 -52 91 -100 103 -126 117 -136 37 -26 -20 28 -44 72
-53 98 -9 26 -25 64 -35 84 -10 20 -19 39 -19 42 1 7 -74 154 -81 160 -16 12
-42 90 -36 101 5 7 4 10 -1 6 -13 -8 -26 3 -42 33 l-13 25 21 -24 c27 -31 37
-21 14 15 -10 15 -19 35 -21 45 -1 10 -11 31 -20 46 -10 16 -27 44 -38 62 -34
57 -67 93 -75 82 -4 -7 -20 8 -39 34 -18 26 -32 48 -30 50 6 5 44 -28 57 -50
10 -17 11 -18 12 -3 0 10 -13 27 -29 39 -16 12 -32 32 -35 45 -4 13 -18 31
-32 41 -14 9 -30 28 -35 41 -5 14 -12 22 -15 19 -3 -3 -1 -15 6 -26 18 -35 -3
-23 -28 15 -23 35 -23 36 -2 29 19 -6 19 -5 -4 22 -14 15 -39 44 -55 63 -53
62 -98 112 -115 129 -63 61 -67 64 -60 48 3 -9 2 -17 -4 -17 -5 0 -12 7 -16
15 -3 8 0 15 6 15 6 0 1 12 -13 27 -49 55 81 -59 164 -144 96 -98 191 -218
290 -368 77 -115 112 -160 103 -131 -4 10 -18 70 -32 134 -14 63 -32 129 -40
148 -8 18 -14 49 -14 68 0 43 39 169 81 261 16 37 32 81 33 99 2 17 6 38 10
46 3 8 15 42 25 75 20 59 19 83 0 55 -8 -11 -9 -8 -3 10 3 14 11 30 16 37 15
19 27 127 15 135 -6 4 -4 13 8 24 11 11 14 19 6 22 -8 3 -8 9 1 25 7 12 14 36
15 52 2 17 8 52 13 78 18 87 10 198 -12 165 -10 -15 1 40 11 57 3 6 7 24 8 40
0 17 4 48 6 69 3 22 2 48 -4 57 -14 27 27 162 72 237 22 35 36 68 33 73 -3 5
0 9 5 9 6 0 11 7 11 15 0 8 5 15 11 15 6 0 9 6 7 12 -3 7 1 18 8 25 21 21 28
120 15 221 -15 121 -24 139 -45 89 -20 -50 -29 -47 -11 4 13 36 13 40 0 35
-19 -7 -19 -4 0 41 18 42 18 46 4 37 -8 -4 -9 0 -4 15 5 17 2 21 -13 21 -11 0
-23 6 -26 13 -3 6 -3 -3 0 -22 3 -19 7 -37 9 -41 4 -6 -48 -50 -60 -50 -16 0
-1 42 21 56 14 10 21 20 16 23 -19 12 -18 36 2 53 17 13 19 20 10 35 -12 19
-30 16 -28 -4 1 -7 -2 -11 -6 -8 -5 3 -14 -11 -20 -31 -9 -26 -15 -32 -21 -23
-5 9 -8 3 -7 -16 0 -17 -12 -59 -27 -95 -29 -69 -42 -90 -32 -52 3 13 1 20 -5
16 -5 -3 -7 -16 -4 -29 7 -27 -19 -96 -35 -92 -6 1 -14 -5 -16 -13 -4 -13 -3
-13 6 0 8 11 11 11 11 2 0 -29 -137 -278 -148 -268 -2 3 1 13 9 22 17 21 31
45 69 120 32 66 36 79 19 68 -6 -3 -3 8 5 25 9 17 21 43 27 58 8 22 12 25 20
13 8 -12 10 -10 6 8 -3 14 11 62 35 120 50 122 88 230 88 252 0 10 -18 37 -41
61 -22 24 -36 35 -30 24 6 -14 5 -31 -5 -54 -8 -18 -15 -45 -15 -60 -2 -23 -2
-24 -6 -3 -2 12 -9 20 -14 17 -5 -4 -9 3 -9 14 0 12 -4 21 -10 21 -5 0 -10 9
-10 21 0 11 -4 17 -10 14 -5 -3 -10 3 -10 15 0 12 -4 18 -10 15 -6 -4 -10 5
-10 19 0 14 -5 26 -11 26 -5 0 -7 5 -4 10 3 6 -1 10 -9 10 -9 0 -16 7 -16 16
0 13 -3 14 -14 5 -10 -9 -16 -8 -26 4 -15 18 -28 18 -100 -1z m-105 -99 c-21
-36 -39 -64 -41 -62 -3 2 12 34 33 70 21 36 39 64 41 62 2 -2 -13 -33 -33 -70z
m264 24 c30 -49 40 -73 22 -53 -13 14 -64 104 -58 104 2 0 18 -23 36 -51z
m-127 -29 c4 0 8 7 8 15 0 8 5 15 11 15 5 0 7 6 4 13 -4 6 3 2 14 -11 11 -13
50 -79 86 -148 54 -101 64 -128 55 -139 -7 -8 -9 -15 -5 -15 5 0 0 -9 -10 -20
-10 -11 -14 -20 -10 -20 5 0 4 -5 -3 -12 -7 -7 -12 -20 -12 -30 0 -10 -3 -18
-6 -18 -13 0 -30 26 -26 39 3 9 0 11 -8 6 -10 -6 -12 -4 -7 9 5 11 3 15 -5 10
-8 -5 -9 -2 -5 10 5 11 3 15 -5 10 -8 -5 -9 -2 -5 9 3 10 2 17 -3 17 -5 0 -6
7 -3 17 4 11 3 14 -5 9 -8 -5 -10 -1 -5 10 4 10 2 15 -4 11 -11 -7 -46 60 -38
74 4 5 -2 6 -11 2 -16 -6 -15 -4 2 19 15 20 21 23 27 12 4 -7 3 -24 -3 -36
-10 -21 -10 -21 3 -5 13 16 15 16 21 2 3 -9 1 -25 -4 -35 -9 -16 -7 -18 11
-15 15 3 19 0 15 -11 -3 -8 -2 -13 3 -10 12 8 22 -20 15 -41 -5 -15 -4 -16 5
-3 9 12 11 13 11 1 0 -8 3 -12 6 -9 3 3 -11 38 -30 77 -37 73 -42 86 -28 77
11 -7 9 40 -2 51 -5 5 -6 3 -2 -4 4 -7 3 -20 -1 -28 -7 -12 -13 -8 -26 20 -10
20 -15 40 -12 45 3 4 -4 6 -15 3 -15 -4 -19 -13 -17 -37 1 -21 -2 -30 -11 -28
-7 1 -15 -5 -18 -13 -3 -8 -11 -12 -17 -8 -5 3 -7 1 -4 -5 12 -18 -3 -38 -30
-40 -15 -1 -31 -6 -37 -12 -10 -10 26 -6 44 5 12 7 13 -5 2 -21 -4 -6 -15 -10
-24 -9 -9 2 -19 -3 -22 -11 -4 -11 -2 -13 11 -5 12 6 21 4 31 -7 7 -10 11 -12
9 -7 -2 6 0 19 4 30 9 18 9 18 5 -2 -2 -13 0 -23 5 -23 5 0 0 -16 -11 -35 -23
-41 -25 -49 -8 -39 7 4 8 3 4 -5 -4 -6 -12 -9 -17 -6 -5 4 -9 4 -9 1 0 -2 -3
-12 -7 -22 -5 -13 -3 -15 7 -9 9 5 11 4 6 -4 -13 -21 -38 9 -31 37 4 15 2 21
-5 17 -10 -6 -14 7 -11 32 1 6 -3 14 -9 18 -5 3 -10 12 -10 18 0 7 4 6 11 -3
8 -12 10 -10 5 10 -5 24 44 134 102 224 l26 41 10 -27 c5 -16 13 -28 18 -28z
m-208 25 c-4 -8 -10 -12 -15 -9 -5 3 -9 0 -9 -7 0 -7 -3 -9 -7 -5 -5 4 1 14
11 22 25 18 27 18 20 -1z m31 -24 c-3 -12 -11 -18 -17 -15 -6 4 -8 -1 -3 -15
5 -17 3 -20 -12 -14 -15 5 -16 4 -7 -8 9 -11 7 -18 -6 -32 -16 -16 -17 -16
-28 9 -7 14 -8 23 -3 19 5 -3 22 17 37 45 17 31 31 47 37 41 5 -5 6 -19 2 -30z
m195 -83 c0 -4 -7 -14 -16 -23 -10 -9 -18 -27 -19 -39 -2 -13 -10 -36 -18 -52
l-15 -29 -11 28 c-9 22 -8 35 4 58 9 16 19 27 24 25 13 -9 39 30 30 45 -5 8
-9 18 -9 23 0 11 29 -25 30 -36z m-207 -3 c-3 -9 -8 -14 -10 -11 -3 3 -2 9 2
15 9 16 15 13 8 -4z m408 -37 c11 -21 11 -22 -4 -9 -10 7 -17 17 -17 22 0 15
9 10 21 -13z m-428 -3 c-3 -9 -8 -14 -10 -11 -3 3 -2 9 2 15 9 16 15 13 8 -4z
m-91 -52 c45 -74 101 -184 95 -189 -2 -3 -19 26 -37 63 -18 38 -45 86 -60 108
-25 38 -43 75 -36 75 2 0 19 -26 38 -57z m-58 31 c5 -14 4 -15 -9 -4 -17 14
-19 20 -6 20 5 0 12 -7 15 -16z m-112 -66 c-9 -9 -12 -4 -11 23 0 32 1 33 11
11 8 -17 8 -26 0 -34z m492 -17 c15 -32 20 -53 14 -59 -7 -7 -6 -17 1 -29 11
-16 11 -15 5 7 -11 42 19 3 44 -57 18 -43 20 -56 11 -77 -14 -31 -24 -26 -33
14 -3 17 -10 29 -15 26 -12 -8 -32 50 -24 71 5 11 3 14 -6 8 -10 -6 -11 -2 -6
15 6 19 5 21 -13 11 -16 -9 -24 -7 -37 5 -9 9 -14 19 -12 23 2 3 12 25 22 49
10 23 20 42 21 42 2 0 15 -22 28 -49z m-450 -33 c-9 -15 -33 12 -27 29 5 14 8
14 19 -2 7 -10 11 -22 8 -27z m-44 12 c0 -5 -5 -10 -11 -10 -5 0 -7 5 -4 10 3
6 8 10 11 10 2 0 4 -4 4 -10z m73 -44 c6 -15 -1 -26 -15 -26 -4 0 -8 9 -8 20
0 23 15 27 23 6z m357 -21 c5 3 12 0 16 -6 5 -8 3 -9 -6 -4 -10 6 -12 3 -7
-11 7 -18 7 -18 -8 0 -15 19 -15 19 -15 1 0 -16 -2 -17 -12 -6 -10 11 -10 14
0 18 6 3 13 12 13 21 1 15 2 15 6 -1 2 -9 8 -15 13 -12z m374 -61 c-35 -29
-44 -30 -44 -5 0 11 12 28 28 39 24 18 28 19 36 5 6 -11 0 -22 -20 -39z m-701
3 c-3 -5 -10 -4 -15 1 -6 6 -7 16 -3 22 6 9 9 9 16 -1 4 -7 5 -17 2 -22z m395
-59 l29 -87 -36 -67 c-20 -37 -43 -70 -51 -72 -11 -4 -11 -1 2 11 9 9 28 42
43 72 l26 55 -24 76 -23 76 -33 -66 c-19 -36 -36 -64 -38 -62 -2 2 13 38 34
79 20 42 38 75 39 74 2 -1 16 -42 32 -89z m379 72 c-1 -11 -5 -20 -9 -20 -10
0 -10 4 -2 24 8 22 13 20 11 -4z m-457 -27 c0 -7 -26 3 -32 12 -15 20 -8 24
12 8 11 -10 20 -19 20 -20z m-177 7 c3 -11 1 -18 -4 -14 -5 3 -9 12 -9 20 0
20 7 17 13 -6z m82 -135 c28 -97 29 -105 16 -105 -5 0 -11 17 -14 38 -6 45
-14 79 -22 92 -4 6 -9 23 -11 38 -3 15 -9 31 -15 37 -5 5 -9 16 -9 25 1 28 29
-36 55 -125z m-199 88 c-6 -14 -9 -15 -16 -4 -11 19 -1 46 13 32 5 -5 7 -18 3
-28z m730 11 c-4 -9 -9 -15 -11 -12 -3 3 -3 13 1 22 4 9 9 15 11 12 3 -3 3
-13 -1 -22z m-452 4 c-3 -4 -9 -8 -15 -8 -5 0 -9 4 -9 8 0 5 7 9 15 9 8 0 12
-4 9 -9z m386 -11 c0 -8 -11 -24 -26 -37 -21 -21 -27 -22 -34 -10 -7 11 -3 21
18 37 31 26 42 29 42 10z m43 -37 c-3 -11 -10 -23 -16 -27 -5 -3 -8 -2 -5 3 3
5 8 17 11 27 9 24 16 22 10 -3z m-361 -18 c7 -24 -18 -47 -26 -25 -8 19 2 55
14 48 4 -2 10 -13 12 -23z m-322 3 c0 -8 -4 -15 -10 -15 -5 0 -10 7 -10 15 0
8 5 15 10 15 6 0 10 -7 10 -15z m610 -28 c0 -12 -51 -57 -65 -57 -11 0 -4 28
10 40 13 11 14 10 8 -6 -6 -17 -5 -17 10 -6 9 8 16 17 15 20 -1 15 2 22 12 22
6 0 10 -6 10 -13z m-580 -39 c0 -5 -5 -8 -11 -8 -5 0 -7 5 -4 10 3 6 1 10 -5
10 -6 0 -8 5 -4 11 6 11 23 -6 24 -23z m227 10 c-3 -8 -6 -5 -6 6 -1 11 2 17
5 13 3 -3 4 -12 1 -19z m-370 -10 c-3 -8 -6 -5 -6 6 -1 11 2 17 5 13 3 -3 4
-12 1 -19z m754 -1 c-10 -9 -11 -8 -5 6 3 10 9 15 12 12 3 -3 0 -11 -7 -18z
m-318 -22 c-3 -9 -8 -14 -10 -11 -3 3 -2 9 2 15 9 16 15 13 8 -4z m-43 -32 c0
-32 -5 -28 -14 10 -4 19 -3 26 4 22 5 -3 10 -18 10 -32z m167 -1 c-9 -9 -20
-28 -26 -42 -14 -31 -31 -58 -53 -82 -28 -28 -22 -14 25 59 24 37 47 77 52 88
5 14 9 16 12 7 3 -7 -2 -21 -10 -30z m121 11 c-3 -12 -12 -17 -26 -16 -14 2
-22 -3 -22 -13 0 -9 -5 -12 -12 -8 -7 5 -2 15 18 31 35 27 47 29 42 6z m-350
-123 c0 -9 -3 -7 -8 5 -5 11 -8 29 -8 40 0 16 2 15 8 -5 4 -14 8 -32 8 -40z
m312 50 c0 -5 -2 -10 -4 -10 -3 0 -8 5 -11 10 -3 6 -1 10 4 10 6 0 11 -4 11
-10z m-46 -25 c3 -8 1 -15 -4 -15 -6 0 -10 7 -10 15 0 8 2 15 4 15 2 0 6 -7
10 -15z m-343 -75 c-21 -22 -23 -19 -9 12 7 15 16 22 19 16 4 -6 -1 -18 -10
-28z m344 31 c3 -5 0 -13 -6 -17 -8 -5 -9 -3 -4 6 6 10 4 12 -9 7 -10 -4 -15
-3 -11 3 8 13 22 13 30 1z m-317 -76 c-3 -3 -9 2 -12 12 -6 14 -5 15 5 6 7 -7
10 -15 7 -18z m69 -27 c-3 -8 -6 -5 -6 6 -1 11 2 17 5 13 3 -3 4 -12 1 -19z
m-334 -145 c30 -54 65 -115 76 -137 12 -21 20 -43 18 -49 -2 -7 5 -19 16 -27
10 -9 20 -27 20 -42 1 -14 5 -24 8 -22 14 9 104 -220 93 -237 -4 -7 -3 -9 4
-5 13 8 36 -58 28 -80 -3 -8 -2 -13 2 -10 10 6 35 -61 28 -73 -4 -5 -1 -11 5
-13 6 -2 12 -17 13 -33 2 -17 8 -40 15 -53 6 -12 11 -28 10 -35 -1 -6 3 -25
10 -41 9 -22 9 -31 0 -36 -7 -5 -8 -9 -1 -11 6 -2 13 -17 16 -34 l6 -30 -11
28 c-6 15 -15 27 -20 27 -4 0 -6 13 -3 30 5 21 2 31 -8 35 -9 4 -13 15 -11 29
3 13 -2 29 -9 37 -8 7 -13 23 -10 34 2 12 -3 29 -12 37 -8 9 -12 24 -9 36 3
13 -3 28 -16 41 -11 11 -20 29 -19 38 3 37 -3 53 -18 53 -12 0 -15 6 -10 25 5
18 0 31 -15 46 -11 11 -22 19 -24 17 -2 -2 11 -42 30 -88 40 -101 101 -299
109 -355 l6 -40 -11 35 c-106 339 -170 498 -315 783 -35 70 -62 127 -59 127 2
0 16 -21 29 -47 14 -27 34 -61 45 -78 18 -26 21 -27 27 -10 5 13 0 24 -18 40
-13 11 -23 26 -20 33 2 6 -3 21 -11 33 -9 12 -13 29 -9 38 5 14 4 14 -13 1
-12 -10 -16 -10 -11 -2 4 7 1 23 -7 35 -12 18 -13 47 -2 47 1 0 28 -44 58 -97z
m286 18 c2 -52 -8 -32 -13 30 -4 38 -3 46 3 29 5 -14 9 -40 10 -59z m-42 17
c-3 -8 -6 -5 -6 6 -1 11 2 17 5 13 3 -3 4 -12 1 -19z m112 -40 c-1 -35 -2 -38
-8 -18 -7 23 -4 60 5 60 2 0 4 -19 3 -42z m-139 -50 c0 -19 -2 -20 -10 -8 -13
19 -13 30 0 30 6 0 10 -10 10 -22z m56 -17 c12 10 14 0 13 -62 -1 -41 -4 -64
-6 -51 -2 12 -9 22 -14 22 -6 0 -7 6 -2 13 10 15 11 57 2 57 -4 0 -10 -12 -12
-27 -2 -16 -4 -5 -4 22 -1 28 1 42 4 32 4 -14 8 -16 19 -6z m-387 -5 c9 -11 6
-18 -19 -36 l-30 -22 17 36 c19 42 17 40 32 22z m468 -8 c-3 -8 -6 -5 -6 6 -1
11 2 17 5 13 3 -3 4 -12 1 -19z m383 -62 c0 -5 -6 -3 -13 3 -8 6 -16 8 -20 5
-3 -3 -3 4 0 15 5 20 6 20 19 4 7 -10 14 -22 14 -27z m-910 14 c0 -5 -5 -10
-11 -10 -5 0 -7 5 -4 10 3 6 8 10 11 10 2 0 4 -4 4 -10z m100 -19 c0 -12 -42
-42 -49 -36 -5 6 29 45 41 45 4 0 8 -4 8 -9z m427 -13 c-3 -8 -6 -5 -6 6 -1
11 2 17 5 13 3 -3 4 -12 1 -19z m-50 -20 c-3 -7 -5 -2 -5 12 0 14 2 19 5 13 2
-7 2 -19 0 -25z m20 -25 c-3 -10 -5 -4 -5 12 0 17 2 24 5 18 2 -7 2 -21 0 -30z
m209 11 c-4 -9 -9 -15 -11 -12 -3 3 -3 13 1 22 4 9 9 15 11 12 3 -3 3 -13 -1
-22z m184 6 c0 -5 -2 -10 -4 -10 -3 0 -8 5 -11 10 -3 6 -1 10 4 10 6 0 11 -4
11 -10z m-361 -57 c-1 -54 -2 -55 -9 -23 -8 31 -4 80 6 80 2 0 4 -26 3 -57z
m-409 32 c-11 -13 -10 -14 4 -9 10 4 16 1 16 -8 0 -7 -13 -19 -29 -25 l-30
-11 17 34 c8 19 20 34 25 34 5 0 4 -7 -3 -15z m771 -18 c-10 -9 -11 -8 -5 6 3
10 9 15 12 12 3 -3 0 -11 -7 -18z m-217 -19 c-4 -13 -2 -18 5 -14 11 7 -4 -32
-38 -99 l-21 -40 4 40 c3 22 5 45 5 50 1 6 5 3 11 -5 15 -24 33 35 19 62 -9
16 -8 19 2 13 9 -6 11 -3 6 9 -4 10 -3 15 4 11 5 -4 7 -16 3 -27z m-504 -52
c0 -8 -13 -19 -30 -24 -27 -10 -29 -9 -17 8 6 11 18 21 27 24 8 2 16 4 18 5 1
0 2 -5 2 -13z m570 -42 c-13 -33 -13 -37 2 -28 7 4 8 3 4 -5 -4 -6 -11 -9 -16
-6 -11 7 -22 -24 -13 -37 3 -7 1 -8 -5 -4 -6 4 -18 -6 -27 -23 -18 -35 -19
-45 -4 -35 8 4 8 0 0 -15 -7 -11 -17 -20 -23 -18 -6 1 -13 -4 -16 -12 -3 -9 0
-11 8 -6 9 5 11 4 6 -4 -4 -6 -12 -8 -18 -5 -7 5 -9 2 -6 -8 4 -9 0 -15 -8
-15 -19 0 -18 6 7 47 22 35 62 107 93 168 20 38 29 42 16 6z m-551 -35 c-17
-10 -39 -12 -39 -2 0 3 8 15 17 25 15 17 18 17 26 2 6 -11 5 -19 -4 -25z m601
20 c0 -11 -4 -18 -10 -14 -5 3 -7 12 -3 20 7 21 13 19 13 -6z m-690 -73 c0
-18 -17 8 -24 34 l-7 25 15 -25 c9 -14 15 -29 16 -34z m123 4 c-4 -4 -19 -11
-31 -15 -23 -7 -24 -7 -7 19 14 21 20 24 32 15 7 -7 10 -15 6 -19z m541 15 c3
-8 1 -15 -4 -15 -6 0 -10 7 -10 15 0 8 2 15 4 15 2 0 6 -7 10 -15z m-684 -42
c0 -13 3 -13 15 -3 8 7 15 10 15 8 0 -3 21 -54 46 -114 25 -60 50 -122 54
-139 64 -224 90 -323 90 -342 0 -22 -25 -9 -27 13 -6 54 -8 64 -15 64 -13 0
-9 -48 5 -53 9 -4 9 -6 -1 -6 -14 -1 -32 39 -32 71 0 17 3 18 15 8 13 -11 14
-8 11 16 -2 16 -11 52 -20 80 -10 28 -18 57 -19 65 -2 8 -6 20 -10 27 -5 6 -6
16 -3 21 4 5 3 11 -2 13 -4 1 -16 30 -26 63 -10 33 -26 78 -36 100 -10 23 -22
53 -25 68 -8 28 -20 36 -27 15 -3 -7 -10 2 -16 20 -6 18 -7 30 -2 27 6 -4 10
-13 10 -22z m-109 -6 c-10 -9 -11 -8 -5 6 3 10 9 15 12 12 3 -3 0 -11 -7 -18z
m274 -26 c-6 -5 -21 -12 -35 -16 l-25 -7 24 26 c17 18 28 23 35 16 6 -6 6 -13
1 -19z m495 20 c0 -5 -7 -11 -15 -15 -15 -5 -20 5 -8 17 9 10 23 9 23 -2z
m-755 -32 c-9 -17 -19 -29 -22 -26 -5 5 25 57 33 57 3 0 -3 -14 -11 -31z m354
-21 c5 -18 23 -71 40 -118 17 -46 30 -88 28 -94 -3 -8 -87 221 -87 237 0 18
10 4 19 -25z m-231 -3 c-3 -3 -9 2 -12 12 -6 14 -5 15 5 6 7 -7 10 -15 7 -18z
m612 -1 c0 -12 -2 -12 -14 -2 -8 7 -12 16 -9 21 7 11 23 -2 23 -19z m-450 -18
c0 -8 -11 -16 -25 -18 -24 -5 -25 0 -2 29 11 15 27 8 27 -11z m-137 -46 c-6
-7 -23 23 -23 40 0 8 6 4 13 -10 8 -14 12 -27 10 -30z m561 31 c3 -5 -4 -11
-15 -14 -15 -4 -20 -11 -16 -21 4 -10 1 -16 -8 -16 -19 0 -19 6 3 35 18 26 28
30 36 16z m-402 -39 c9 -9 7 -13 -5 -17 -9 -3 -24 -7 -33 -10 -14 -5 -15 -3
-4 10 7 9 10 18 7 21 -3 3 -12 -3 -19 -15 -7 -12 -17 -21 -22 -21 -5 0 1 11
13 24 24 25 43 28 63 8z m-147 -12 c-4 -6 -2 -17 4 -24 14 -16 70 -206 62
-206 -6 0 -81 216 -81 233 0 4 5 7 11 7 5 0 7 -5 4 -10z m-101 -64 c-42 -63
-58 -76 -23 -18 43 70 52 83 56 78 2 -2 -12 -29 -33 -60z m36 4 c-42 -66 -51
-58 -9 9 17 29 34 50 36 47 3 -3 -9 -28 -27 -56z m564 24 c5 -14 4 -15 -9 -4
-17 14 -19 20 -6 20 5 0 12 -7 15 -16z m-326 -30 c-4 -3 -23 -7 -43 -9 -30 -3
-34 -1 -25 11 7 7 15 12 19 10 4 -3 13 -1 21 4 15 9 39 -4 28 -16z m18 -53
c-9 -14 -44 -20 -49 -7 -3 7 7 13 25 14 16 1 27 -2 24 -7z m103 -101 c0 -23
-15 7 -22 45 l-6 30 14 -30 c8 -16 14 -37 14 -45z m-86 40 c-4 -4 -19 -11 -33
-15 -25 -8 -25 -7 -7 13 11 11 26 18 34 15 8 -3 11 -9 6 -13z m-268 -73 c17
-13 21 -13 33 2 11 14 12 13 3 -6 -9 -18 -7 -24 11 -37 12 -9 19 -16 14 -16
-7 0 -81 56 -111 83 -14 13 25 -8 50 -26z m285 14 c0 -9 -41 -23 -48 -16 -2 2
-1 8 3 14 8 13 45 15 45 2z m-145 -20 c-3 -5 -1 -12 4 -16 6 -3 7 -13 4 -22
-5 -12 -3 -14 8 -8 11 6 12 5 2 -5 -16 -17 -21 -12 -29 28 -4 22 -3 32 5 32 7
0 10 -4 6 -9z m243 -86 c0 -16 -2 -15 -8 5 -4 14 -8 34 -8 45 0 16 2 15 8 -5
4 -14 8 -34 8 -45z m-82 46 c-7 -11 -56 -21 -56 -10 0 9 19 17 43 18 10 1 16
-3 13 -8z m-186 -46 c20 -24 6 -28 -15 -5 -10 11 -13 20 -8 20 6 0 16 -7 23
-15z m200 -11 c0 -10 -12 -14 -42 -13 -24 1 -33 4 -20 6 13 3 19 9 16 15 -4 6
-2 8 4 4 6 -3 13 -2 17 4 8 13 25 3 25 -16z m108 -29 c0 -16 -2 -15 -8 5 -11
34 -11 60 0 35 5 -11 8 -29 8 -40z m-387 -12 l24 -26 -32 23 c-34 25 -39 30
-25 30 5 0 19 -12 33 -27z m368 -23 c0 -9 -4 -8 -9 5 -5 11 -9 27 -9 35 0 9 4
8 9 -5 5 -11 9 -27 9 -35z m-79 15 c0 -22 -4 -25 -32 -25 l-33 0 30 25 c37 30
35 30 35 0z m5 -55 c-3 -5 -1 -10 4 -10 6 0 11 -4 11 -10 0 -5 -16 -10 -35
-10 -40 0 -45 10 -12 26 29 15 40 16 32 4z m-226 -31 c11 -19 12 -21 0 -9 -8
8 -21 21 -29 29 -12 11 -12 12 -1 9 8 -2 21 -15 30 -29z m308 9 c-3 -8 -6 -5
-6 6 -1 11 2 17 5 13 3 -3 4 -12 1 -19z m30 -20 c-3 -7 -5 -2 -5 12 0 14 2 19
5 13 2 -7 2 -19 0 -25z m-342 -18 c3 -5 1 -10 -4 -10 -6 0 -11 5 -11 10 0 6 2
10 4 10 3 0 8 -4 11 -10z m242 3 c-4 -3 -2 -12 4 -20 17 -19 -22 -17 -47 3
-10 8 -14 13 -9 11 6 -2 19 -1 30 4 26 10 30 10 22 2z m-123 -80 c4 -9 1 -11
-7 -7 -20 12 -57 48 -57 57 0 11 58 -34 64 -50z m-24 -37 c-1 -20 -1 -20 -13
2 -7 12 -16 20 -20 16 -3 -4 -11 5 -17 20 -5 15 -14 24 -20 21 -6 -3 -7 1 -4
10 6 14 12 11 40 -16 19 -18 34 -42 34 -53z m-239 57 c13 -16 12 -17 -3 -4
-17 13 -22 21 -14 21 2 0 10 -8 17 -17z m496 -25 c-3 -7 -5 -2 -5 12 0 14 2
19 5 13 2 -7 2 -19 0 -25z m-92 4 c-3 -3 -11 0 -18 7 -9 10 -8 11 6 5 10 -3
15 -9 12 -12z m8 -217 c45 -55 104 -131 131 -169 32 -45 51 -64 56 -56 6 9 13
7 29 -9 30 -30 26 -49 -4 -21 -30 29 -32 19 -4 -21 14 -21 16 -27 5 -23 -8 3
-17 12 -20 20 -3 9 -10 12 -16 9 -6 -3 -7 1 -4 10 7 18 -25 47 -40 37 -5 -3
-7 2 -4 10 4 8 -3 26 -15 40 -12 13 -27 33 -34 44 -6 10 -16 18 -23 16 -7 -2
-9 5 -5 18 4 13 2 20 -7 20 -7 0 -22 12 -33 26 -11 14 -27 33 -36 43 -8 9 -13
23 -11 31 3 7 0 10 -6 6 -5 -3 -13 1 -16 10 -3 8 -10 13 -15 10 -5 -3 -14 8
-21 24 -7 16 -17 27 -23 23 -6 -3 -7 -1 -3 6 4 6 1 14 -8 17 -8 3 -19 20 -25
37 -11 31 -10 31 29 -13 23 -25 78 -90 123 -145z m-73 137 c48 -49 76 -90 67
-99 -3 -2 -10 4 -16 15 -12 22 -16 27 -76 90 -54 58 -33 53 25 -6z m195 38
c-3 -5 -1 -10 4 -10 6 0 10 -12 10 -27 -2 -25 -2 -25 -6 -5 -3 13 -11 26 -20
29 -12 5 -12 7 -1 14 17 11 20 11 13 -1z m-58 -42 c-3 -8 -6 -5 -6 6 -1 11 2
17 5 13 3 -3 4 -12 1 -19z m30 0 c-3 -8 -6 -5 -6 6 -1 11 2 17 5 13 3 -3 4
-12 1 -19z m-366 -45 l34 -36 -31 21 c-36 24 -61 52 -47 52 5 0 25 -16 44 -37z
m366 5 c-3 -8 -6 -5 -6 6 -1 11 2 17 5 13 3 -3 4 -12 1 -19z m-277 -43 c5 -21
5 -34 0 -29 -10 11 -25 82 -15 72 4 -3 11 -23 15 -43z m321 4 c-9 -23 -10 -22
-10 11 -1 23 2 31 9 24 7 -7 7 -19 1 -35z m-350 -26 c13 -16 12 -17 -3 -4 -17
13 -22 21 -14 21 2 0 10 -8 17 -17z m8 -47 c-3 -3 -11 5 -18 17 -13 21 -12 21
5 5 10 -10 16 -20 13 -22z m95 -26 c5 -23 4 -30 -2 -20 -6 8 -13 31 -16 50 -5
23 -4 30 2 20 6 -8 13 -31 16 -50z m-44 -18 c0 -20 -3 -22 -14 -13 -8 6 -16
25 -18 41 -4 28 -4 29 14 13 10 -9 18 -27 18 -41z m258 -11 c6 -8 12 -22 12
-30 0 -16 -59 46 -60 63 0 10 28 -10 48 -33z m-130 -58 c20 -61 17 -86 -6 -40
-11 22 -32 94 -32 112 0 22 19 -14 38 -72z m-87 36 l22 -31 -24 4 c-19 2 -24
9 -24 31 -1 15 0 27 1 27 2 0 13 -14 25 -31z m50 -65 c22 -27 -2 -35 -27 -9
-13 14 -24 28 -24 30 0 8 40 -8 51 -21z m119 -65 c22 -71 22 -100 -1 -58 -16
30 -38 129 -29 129 4 0 17 -32 30 -71z m-67 1 c32 -35 33 -40 9 -40 -19 0 -65
54 -55 64 11 11 19 7 46 -24z m-242 -23 c-10 -9 -11 -8 -5 6 3 10 9 15 12 12
3 -3 0 -11 -7 -18z m45 -37 c0 -12 -4 -16 -9 -11 -5 5 -6 14 -3 20 10 15 12
14 12 -9z m383 -44 c-3 -3 -11 5 -18 17 -13 21 -12 21 5 5 10 -10 16 -20 13
-22z m70 0 c7 -8 8 -17 3 -20 -6 -3 -12 3 -15 14 -6 24 -4 25 12 6z m45 -22
c3 -8 2 -12 -4 -9 -6 3 -10 10 -10 16 0 14 7 11 14 -7z m-119 -4 c3 -5 1 -10
-4 -10 -6 0 -11 5 -11 10 0 6 2 10 4 10 3 0 8 -4 11 -10z m106 -22 c11 -21 11
-22 -4 -9 -10 7 -17 17 -17 22 0 15 9 10 21 -13z m-400 -51 c-10 -9 -11 -8 -5
6 3 10 9 15 12 12 3 -3 0 -11 -7 -18z m45 -110 c8 3 14 0 14 -7 0 -15 -33 -9
-36 8 -1 7 0 8 2 3 3 -6 12 -7 20 -4z m-155 -60 c-10 -9 -11 -8 -5 6 3 10 9
15 12 12 3 -3 0 -11 -7 -18z m618 -112 c0 -5 -4 -3 -9 5 -5 8 -9 22 -9 30 0
16 17 -16 18 -35z m-334 -26 c-3 -4 -12 -6 -20 -3 -8 4 -13 10 -10 15 3 4 12
6 20 3 8 -4 13 -10 10 -15z m27 -31 c-3 -12 -7 -17 -10 -10 -2 7 -9 10 -15 6
-7 -3 -3 2 7 10 25 20 25 20 18 -6z m72 -73 c3 -9 0 -15 -9 -15 -8 0 -15 7
-15 15 0 8 4 15 9 15 5 0 11 -7 15 -15z m5 -69 c-29 -49 -36 -46 -8 4 12 22
24 38 26 36 2 -2 -6 -20 -18 -40z m-25 25 c3 -4 3 -11 0 -14 -8 -8 -34 3 -34
14 0 11 27 12 34 0z m143 -18 c-28 -54 -80 -133 -85 -129 -2 3 1 13 9 22 11
13 11 18 2 21 -7 3 -13 19 -12 36 l1 32 9 -32 c5 -18 11 -33 13 -33 2 0 16 20
30 45 15 25 29 45 32 45 3 0 3 -3 1 -7z m-101 -48 c-3 -8 -11 -15 -18 -14 -10
0 -10 2 0 6 6 2 12 14 13 26 0 12 3 16 6 9 3 -7 2 -19 -1 -27z m45 12 c-10 -9
-11 -8 -5 6 3 10 9 15 12 12 3 -3 0 -11 -7 -18z m49 -61 c0 -2 -7 -7 -16 -10
-8 -3 -12 -2 -9 4 6 10 25 14 25 6z m90 -46 c0 -5 6 -7 13 -4 8 3 20 -2 27
-10 7 -9 16 -13 22 -10 13 8 150 -35 143 -46 -3 -5 0 -12 6 -16 8 -5 9 -3 4 6
-6 10 -1 11 21 6 38 -9 84 -66 53 -66 -5 0 -7 4 -4 10 3 5 -2 9 -12 8 -26 -3
-103 21 -103 32 0 6 -10 10 -22 10 -13 0 -32 7 -42 15 -11 8 -29 13 -40 10
-17 -5 -16 -3 4 9 28 17 10 22 -21 6 -10 -6 -19 -7 -19 -3 0 5 -14 14 -31 20
-17 7 -28 17 -24 22 8 14 25 14 25 1z m54 -181 c-3 -5 -16 -9 -29 -9 -23 0
-25 5 -16 59 1 3 12 -6 26 -19 13 -12 22 -27 19 -31z m122 40 c3 -6 1 -16 -5
-22 -9 -9 -11 -8 -6 5 4 11 0 18 -12 21 -15 4 -16 5 -1 6 9 0 20 -4 24 -10z
m-209 -15 c-3 -3 -12 -4 -19 -1 -8 3 -5 6 6 6 11 1 17 -2 13 -5z m264 -11 c12
-16 12 -17 -1 -7 -8 6 -22 14 -30 17 -13 5 -12 6 1 6 9 1 23 -7 30 -16z m-100
-30 c18 -21 30 -30 26 -21 -11 29 13 32 42 4 21 -20 30 -23 39 -14 10 10 18 6
40 -15 l27 -28 -50 3 c-33 2 -49 7 -47 16 1 7 -9 12 -29 12 -17 0 -37 7 -45
15 -9 8 -30 16 -47 16 -19 1 -24 3 -14 6 13 3 17 11 14 24 -8 29 8 23 44 -18z
m155 2 c-3 -8 0 -15 6 -15 6 0 9 -2 6 -5 -3 -3 -12 -3 -21 1 -13 5 -14 9 -4
20 16 18 20 17 13 -1z m44 -5 c8 -5 12 -11 10 -14 -3 -2 -14 2 -24 10 -22 15
-10 19 14 4z m30 -75 l23 -25 -40 0 c-49 0 -56 6 -35 31 21 24 24 24 52 -6z
m-270 -45 c0 -5 -2 -10 -4 -10 -3 0 -8 5 -11 10 -3 6 -1 10 4 10 6 0 11 -4 11
-10z m47 -26 c10 -22 10 -24 -3 -13 -22 18 -38 50 -22 44 7 -3 18 -17 25 -31z
m33 -12 c0 -8 -1 -13 -3 -11 -1 2 -9 12 -16 22 -12 15 -12 17 3 11 9 -3 16
-13 16 -22z m49 -26 c-3 -3 -11 5 -18 17 -13 21 -12 21 5 5 10 -10 16 -20 13
-22z m40 -15 c-2 -6 -10 2 -17 17 -11 25 -11 25 4 10 9 -9 15 -21 13 -27z m41
-1 c0 -5 -2 -10 -4 -10 -3 0 -8 5 -11 10 -3 6 -1 10 4 10 6 0 11 -4 11 -10z
m40 -9 c0 -5 3 -17 6 -25 4 -11 2 -15 -8 -11 -14 6 -20 45 -6 45 4 0 8 -4 8
-9z m44 -26 c4 -14 11 -25 17 -25 6 0 6 6 -1 19 -9 19 -9 19 30 4 31 -12 40
-21 40 -40 0 -12 -2 -23 -4 -23 -12 0 -108 49 -97 49 11 1 10 6 -4 21 -15 17
-16 20 -3 20 9 0 19 -11 22 -25z m-174 -35 c0 -5 -2 -10 -4 -10 -3 0 -8 5 -11
10 -3 6 -1 10 4 10 6 0 11 -4 11 -10z m137 -90 l108 -49 -4 -104 c-1 -57 -6
-128 -10 -158 l-8 -54 -50 105 c-34 69 -54 125 -58 163 -8 63 -5 66 54 46 38
-13 46 -39 37 -115 -4 -37 -3 -53 4 -49 5 3 10 38 10 76 l0 69 -47 30 c-26 17
-52 30 -59 30 -6 0 -15 -21 -19 -46 -5 -37 -9 -43 -20 -34 -12 10 -12 14 1 27
14 14 12 19 -13 45 -21 22 -29 26 -31 14 -2 -8 2 -25 8 -37 10 -17 9 -20 -2
-16 -7 2 -12 10 -10 17 3 11 0 11 -12 0 -9 -7 -16 -27 -16 -44 0 -42 -10 -76
-22 -76 -6 0 -7 8 -3 18 5 9 11 41 15 71 3 30 12 57 18 59 6 2 8 10 5 18 -5
14 2 44 11 44 3 0 54 -22 113 -50z m13 30 c6 -11 9 -20 7 -20 -2 0 -12 9 -22
20 -10 11 -13 20 -7 20 6 0 16 -9 22 -20z m49 -14 c7 -8 21 -12 31 -9 16 4 20
0 20 -18 -1 -22 -1 -23 -11 -5 -8 12 -14 15 -18 7 -5 -7 -15 -3 -31 14 -13 14
-19 25 -13 25 6 0 16 -6 22 -14z m-222 -38 c-3 -7 -5 -2 -5 12 0 14 2 19 5 13
2 -7 2 -19 0 -25z m117 -143 c67 -102 100 -165 91 -173 -3 -3 -8 4 -12 16 -3
12 -12 22 -20 22 -8 0 -11 -5 -7 -12 8 -13 -39 21 -124 90 -29 23 -50 42 -46
42 3 0 35 -23 70 -50 76 -60 85 -50 13 13 -51 45 -52 45 -45 91 4 25 11 46 16
46 5 0 34 -38 64 -85z m117 -202 c13 -16 12 -17 -3 -4 -17 13 -22 21 -14 21 2
0 10 -8 17 -17z m-70 -71 c-19 -6 -1 -22 25 -22 15 0 23 -4 19 -10 -4 -6 -1
-17 5 -25 10 -11 10 -15 1 -15 -7 0 -9 -5 -6 -11 12 -18 -4 -59 -24 -59 -29 0
-48 31 -54 87 -5 46 -3 54 16 68 16 11 23 12 26 3 2 -7 -1 -14 -8 -16z"/>
<path d="M10946 19473 c-6 -14 -5 -15 5 -6 7 7 10 15 7 18 -3 3 -9 -2 -12 -12z"/>
<path d="M10922 19430 c-18 -29 -15 -38 4 -12 9 13 14 25 12 27 -2 2 -9 -5
-16 -15z"/>
<path d="M11120 19411 c0 -6 4 -13 10 -16 6 -3 7 1 4 9 -7 18 -14 21 -14 7z"/>
<path d="M10879 19278 c-7 -12 -7 -18 -1 -14 13 8 23 -19 16 -41 -3 -10 4 -1
16 20 12 22 19 42 15 45 -13 14 -36 9 -46 -10z m32 -3 c5 4 6 -1 2 -10 -5 -13
-7 -14 -14 -3 -5 7 -8 18 -8 23 0 6 3 4 6 -3 2 -6 9 -10 14 -7z"/>
<path d="M11136 19234 c-4 -9 -2 -12 5 -8 8 4 9 -1 4 -17 -8 -27 -3 -24 13 8
9 16 9 22 -2 26 -8 3 -17 -1 -20 -9z"/>
<path d="M10975 19390 c-3 -5 -2 -17 3 -26 8 -15 10 -15 15 0 5 12 3 15 -5 10
-8 -5 -9 -2 -5 9 7 19 2 23 -8 7z"/>
<path d="M11005 19270 c-4 -6 -11 -7 -17 -4 -6 4 -6 -2 1 -15 14 -25 23 -28
14 -3 -5 13 -3 14 7 5 14 -13 40 -7 40 9 0 6 -7 5 -15 -2 -13 -11 -14 -10 -9
4 7 17 -11 23 -21 6z"/>
<path d="M11054 19177 c3 -10 6 -24 7 -30 0 -7 5 -1 10 12 5 13 7 26 4 29 -3
3 -5 -1 -5 -9 0 -12 -2 -11 -11 1 -9 12 -10 12 -5 -3z"/>
<path d="M11085 19159 c-4 -6 -5 -12 -2 -15 2 -3 7 2 10 11 7 17 1 20 -8 4z"/>
<path d="M11091 19125 c1 -19 18 -51 18 -35 0 8 -4 22 -9 30 -5 8 -9 11 -9 5z"/>
<path d="M11335 19169 c-11 -17 1 -21 15 -4 8 9 8 15 2 15 -6 0 -14 -5 -17
-11z"/>
<path d="M11305 19089 c-11 -17 1 -21 15 -4 8 9 8 15 2 15 -6 0 -14 -5 -17
-11z"/>
<path d="M11001 19044 c0 -11 3 -14 6 -6 3 7 2 16 -1 19 -3 4 -6 -2 -5 -13z"/>
<path d="M10630 18403 c1 -5 16 -37 35 -73 24 -48 35 -61 40 -48 7 18 -10 58
-26 58 -6 0 -7 4 -4 10 7 11 -23 60 -36 60 -5 0 -9 -3 -9 -7z"/>
<path d="M10700 18256 c0 -2 15 -37 33 -79 24 -54 37 -73 44 -66 15 15 4 48
-19 60 -13 7 -17 16 -13 29 8 24 -7 53 -29 56 -9 1 -16 1 -16 0z"/>
<path d="M11670 15616 c0 -9 5 -16 10 -16 6 0 10 4 10 9 0 6 -4 13 -10 16 -5
3 -10 -1 -10 -9z"/>
<path d="M11180 19597 c0 -6 50 -87 54 -87 1 0 2 9 2 19 0 11 -4 17 -8 15 -8
-5 -12 12 -8 31 1 6 -2 7 -6 3 -4 -4 -13 0 -20 10 -7 9 -14 14 -14 9z"/>
<path d="M11247 19483 c3 -7 6 -13 8 -13 2 0 5 6 8 13 3 8 -1 14 -8 14 -7 0
-11 -6 -8 -14z"/>
<path d="M11347 19398 c-2 -13 -8 -32 -12 -43 -14 -35 4 -10 20 28 8 20 11 37
6 37 -5 0 -11 -10 -14 -22z"/>
<path d="M10590 19383 c1 -4 17 -35 36 -68 19 -33 40 -72 47 -87 6 -16 15 -28
18 -28 4 0 10 -13 14 -30 4 -16 11 -30 16 -30 5 0 9 -7 9 -15 0 -8 5 -15 10
-15 6 0 10 2 10 5 0 11 -24 55 -30 55 -4 0 -11 16 -14 35 -4 19 -11 35 -16 35
-5 0 -12 11 -16 25 -3 14 -10 23 -14 20 -5 -3 -11 8 -15 25 -4 16 -11 30 -16
30 -5 0 -9 5 -9 11 0 6 -7 17 -15 25 -8 9 -15 12 -15 7z"/>
<path d="M11305 19289 c-4 -6 -5 -12 -2 -15 2 -3 7 2 10 11 7 17 1 20 -8 4z"/>
<path d="M11370 19255 c-8 -9 -8 -15 -2 -15 12 0 26 19 19 26 -2 2 -10 -2 -17
-11z"/>
<path d="M11282 19235 c-7 -14 -12 -31 -12 -38 1 -7 7 3 16 22 17 39 13 54 -4
16z"/>
<path d="M11186 19003 c-6 -14 -5 -15 5 -6 7 7 10 15 7 18 -3 3 -9 -2 -12 -12z"/>
<path d="M10480 18675 c0 -2 5 -16 12 -30 8 -18 14 -22 19 -13 9 14 -7 48 -21
48 -6 0 -10 -2 -10 -5z"/>
<path d="M11999 18436 c-283 -59 -531 -279 -625 -554 -23 -66 -44 -199 -44
-279 0 -92 31 -245 66 -325 61 -140 185 -291 305 -370 68 -45 219 -121 282
-143 177 -60 384 -58 557 5 146 53 326 206 409 347 162 274 133 647 -74 961
-48 74 -151 178 -229 231 -62 43 -178 97 -251 117 -82 22 -309 28 -396 10z
m372 -87 c83 -21 166 -56 156 -65 -3 -3 -31 3 -63 13 -45 13 -94 18 -209 18
-129 0 -161 -3 -229 -23 -180 -54 -337 -173 -447 -339 -96 -147 -140 -336
-119 -513 6 -52 13 -106 16 -120 11 -48 -15 2 -38 75 -19 60 -22 92 -22 220 1
141 3 156 31 237 38 108 81 181 157 264 160 176 331 253 567 254 85 0 137 -5
200 -21z m43 -369 c56 -27 129 -107 162 -177 80 -172 42 -386 -91 -512 -181
-171 -470 -163 -637 17 -63 68 -78 110 -78 213 0 144 48 256 151 353 106 100
208 138 361 132 64 -3 98 -9 132 -26z m312 -327 c39 -168 0 -336 -106 -455
-98 -110 -213 -160 -365 -160 -86 0 -190 23 -235 51 -24 16 -3 24 31 12 18 -6
72 -11 121 -11 148 0 249 38 356 135 117 107 165 223 165 398 0 119 10 128 33
30z"/>
<path d="M17553 18432 c-181 -54 -305 -165 -350 -315 -23 -75 -22 -237 1 -308
21 -67 94 -165 156 -213 60 -46 200 -115 333 -165 135 -50 179 -75 200 -111
22 -37 21 -68 -3 -107 -29 -48 -67 -63 -158 -63 -64 0 -87 5 -129 26 -59 29
-112 83 -144 146 -12 24 -23 44 -24 46 -3 4 -256 -152 -300 -185 l-30 -22 30
-57 c62 -116 175 -216 337 -294 104 -51 168 -70 275 -82 88 -10 115 -10 188 4
195 38 342 156 390 314 20 65 19 202 -1 272 -23 81 -98 235 -136 277 -60 69
-204 151 -358 204 -52 18 -120 46 -152 62 -66 33 -74 56 -38 114 22 35 49 50
116 65 65 15 111 -1 163 -54 33 -33 48 -43 57 -35 13 10 54 -7 54 -23 0 -5 7
-8 16 -8 18 0 197 165 202 186 2 7 -6 22 -17 33 -18 18 -19 24 -9 41 11 17 7
25 -32 66 -64 66 -177 138 -267 169 -104 37 -276 44 -370 17z m350 -91 c57
-20 126 -60 82 -47 -55 16 -135 26 -204 26 -194 0 -363 -97 -435 -250 -27 -58
-31 -77 -34 -178 -3 -63 -8 -110 -12 -105 -17 18 -40 120 -40 178 0 114 47
224 125 293 46 41 135 90 188 103 59 15 266 3 330 -20z m-86 -618 c77 -26 148
-62 140 -69 -2 -3 -44 11 -93 30 -160 61 -194 90 -47 39z m213 -543 c0 -61
-30 -107 -90 -138 -40 -21 -56 -23 -135 -19 -85 4 -175 28 -175 47 0 5 33 6
74 3 101 -8 164 9 220 58 34 30 47 51 57 90 l13 51 18 -22 c12 -14 18 -39 18
-70z m-606 48 c9 -12 16 -27 16 -33 0 -12 -166 -115 -185 -115 -17 0 -49 50
-38 60 19 19 169 110 180 110 6 0 19 -10 27 -22z"/>
<path d="M6470 17610 c0 -649 3 -820 13 -821 6 -1 31 -1 54 1 38 2 44 -1 53
-24 l10 -27 155 3 155 3 0 775 c0 685 -1 775 -15 778 -16 4 -17 4 -19 77 l-1
50 -202 3 -203 2 0 -820z m328 718 c-3 -22 -9 -23 -103 -28 l-100 -5 -2 -710
c-2 -705 -3 -710 -23 -713 -20 -3 -20 -1 -20 737 l0 741 126 0 c124 0 125 0
122 -22z"/>
<path d="M7125 18418 c-3 -7 -4 -375 -3 -818 l3 -805 60 -5 c53 -4 60 -8 63
-27 3 -23 5 -23 163 -23 l159 0 2 492 3 493 156 -215 c86 -118 236 -325 334
-460 98 -135 184 -250 191 -256 8 -6 25 -9 38 -7 18 4 32 -2 49 -21 l25 -27
163 3 c90 2 163 6 162 11 -2 4 -3 353 -3 776 0 760 0 769 -20 774 -17 4 -20
14 -20 66 l0 61 -200 0 -200 0 0 -490 c0 -269 -3 -490 -7 -490 -5 0 -86 107
-181 238 -94 130 -255 350 -355 487 l-184 250 -197 3 c-152 2 -198 0 -201 -10z
m368 -86 c10 -10 14 -22 10 -25 -3 -4 -62 -7 -130 -7 l-123 0 0 -715 0 -715
-25 0 -25 0 0 740 0 740 138 0 c122 0 141 -2 155 -18z m1075 -4 c-3 -22 -8
-23 -95 -26 l-93 -3 0 -529 c0 -292 -3 -530 -7 -530 -3 0 -15 7 -25 17 -17 15
-18 46 -18 555 l0 538 121 0 c119 0 120 0 117 -22z"/>
<path d="M8890 17610 l0 -820 54 0 c52 0 70 -9 71 -35 0 -6 60 -10 160 -10
l160 0 0 333 c0 182 3 332 7 332 8 0 88 -95 308 -365 206 -252 215 -262 251
-262 22 0 37 -6 47 -21 14 -21 20 -22 223 -22 192 0 231 5 199 25 -8 5 -7 11
1 21 15 18 16 16 -379 477 l-324 378 184 187 c301 306 433 443 441 458 6 11 0
14 -33 14 -45 0 -50 8 -19 36 12 10 35 36 51 57 l30 37 -260 0 -260 0 -227
-245 c-125 -135 -230 -243 -232 -241 -3 2 -4 81 -3 175 1 161 0 170 -20 181
-17 9 -20 21 -20 70 l0 60 -205 0 -205 0 0 -820z m328 718 c-3 -22 -8 -23
-100 -26 l-98 -3 -2 -712 -3 -712 -22 -3 -23 -3 0 740 0 741 126 0 c124 0 125
0 122 -22z m912 13 c0 -27 -47 -41 -137 -41 l-92 0 -238 -257 c-131 -141 -254
-275 -274 -297 -19 -21 -40 -37 -45 -33 -5 3 -7 28 -4 57 5 51 6 53 249 316
l245 264 148 0 c86 0 148 -4 148 -9z"/>
<path d="M13062 18248 l3 -183 63 -3 c53 -3 62 -6 62 -22 0 -18 9 -20 133 -22
l132 -3 3 -612 2 -613 53 0 c57 0 80 -9 75 -31 -2 -12 24 -14 155 -14 l157 0
3 635 2 635 198 3 197 2 0 139 c0 130 -1 139 -20 144 -17 4 -20 14 -20 66 l0
61 -600 0 -600 0 2 -182z m1122 93 c4 -5 3 -16 0 -25 -6 -14 -58 -16 -500 -16
l-494 0 0 -74 c0 -58 -3 -75 -16 -80 -29 -11 -34 4 -34 105 l0 99 519 0 c302
0 522 -4 525 -9z m-599 -343 c3 -13 4 -270 3 -573 l-3 -550 -22 -3 -23 -3 0
575 c0 567 0 576 20 576 12 0 22 -9 25 -22z"/>
<path d="M14370 17610 l0 -819 58 -3 c50 -3 57 -6 60 -25 3 -23 5 -23 163 -23
l159 0 0 320 0 320 270 0 270 0 0 -295 0 -295 45 -1 c68 -2 69 -2 80 -26 9
-22 14 -23 162 -23 l153 0 0 780 c0 670 -2 780 -14 780 -19 0 -28 31 -24 83
l3 42 -202 3 -203 2 -2 -317 -3 -318 -265 0 -265 0 -3 251 c-2 241 -3 252 -22
257 -17 4 -20 14 -20 66 l0 61 -200 0 -200 0 0 -820z m320 715 l0 -25 -100 0
-100 0 0 -716 0 -715 -22 3 -23 3 -3 725 c-1 399 0 731 3 738 3 9 38 12 125
12 l120 0 0 -25z m988 3 c-3 -22 -8 -23 -100 -26 l-98 -3 0 -313 c0 -277 -2
-315 -16 -320 -24 -9 -627 -7 -642 3 -8 5 -12 17 -10 27 3 18 19 19 311 22
l307 2 0 315 0 315 126 0 c124 0 125 0 122 -22z m-203 -1203 l0 -250 -22 -3
-23 -3 0 249 c0 137 3 252 7 256 4 4 14 5 23 4 13 -3 15 -35 15 -253z"/>
<path d="M16008 18423 c-2 -5 -1 -374 2 -822 l5 -814 55 -1 c49 -1 55 -3 58
-23 l3 -23 480 0 479 0 0 139 c0 129 -1 139 -19 144 -16 4 -20 15 -23 63 l-3
59 -295 5 -295 5 0 110 0 110 273 3 272 2 0 139 c0 130 -1 139 -20 144 -17 4
-20 14 -20 66 0 42 -4 61 -12 61 -7 0 -121 2 -253 3 l-240 2 0 110 0 110 318
3 317 2 0 140 c0 132 -1 140 -20 140 -16 0 -19 8 -22 63 l-3 62 -517 3 c-284
1 -518 -1 -520 -5z m960 -95 l-3 -23 -417 -3 -418 -2 0 -716 0 -715 -22 3 -23
3 -3 725 c-1 399 0 731 3 738 3 9 102 12 445 12 l441 0 -3 -22z m-88 -638 l0
-30 -210 0 c-178 0 -212 2 -216 15 -4 8 -4 22 0 30 4 13 38 15 216 15 l210 0
0 -30z m85 -640 l0 -25 -253 -3 c-218 -2 -253 0 -258 13 -4 8 -4 22 0 30 5 13
40 15 258 13 l253 -3 0 -25z"/>
<path d="M18122 16536 c-66 -28 -68 -31 -53 -59 8 -16 11 -69 8 -182 -3 -88
-6 -171 -8 -185 l-4 -25 83 1 c46 1 86 4 89 8 3 3 -2 21 -11 40 -13 28 -16 70
-16 230 0 223 6 211 -88 172z"/>
<path d="M11818 16499 c-8 -5 1 -21 28 -51 52 -56 124 -199 124 -245 0 -19 -7
-51 -17 -70 -11 -23 -13 -37 -6 -41 6 -4 46 -7 90 -6 77 1 78 1 75 25 -17 124
-15 142 28 225 23 43 58 95 77 116 19 20 33 40 30 46 -8 12 -140 8 -144 -5 -2
-5 3 -16 12 -23 20 -17 19 -30 -10 -96 -28 -64 -34 -63 -64 12 -18 46 -18 54
-5 73 28 40 15 46 -99 47 -59 0 -112 -3 -119 -7z"/>
<path d="M13710 16475 c-19 -19 -49 -40 -67 -46 -33 -11 -43 -35 -23 -55 5 -5
11 -57 14 -114 2 -58 10 -117 16 -132 17 -36 65 -52 107 -37 39 13 49 36 26
61 -13 15 -18 42 -21 118 l-4 100 26 10 c33 12 33 28 1 40 -20 8 -25 16 -25
44 0 48 -11 51 -50 11z"/>
<path d="M14574 16479 c-16 -17 -46 -40 -66 -50 -41 -21 -45 -28 -25 -47 7 -8
14 -56 17 -132 6 -139 18 -162 88 -164 61 -1 95 42 57 74 -12 10 -15 36 -15
115 0 94 2 103 20 108 11 3 20 10 20 17 0 7 -9 14 -20 17 -14 4 -20 14 -20 33
0 32 -9 60 -19 60 -4 0 -20 -14 -37 -31z"/>
<path d="M14341 16466 c-7 -8 -32 -24 -57 -35 -47 -23 -52 -32 -29 -51 11 -9
15 -36 16 -109 0 -116 14 -161 53 -180 23 -10 37 -11 66 -2 47 14 56 35 30 68
-17 22 -20 41 -20 120 0 90 1 94 25 103 28 11 25 35 -6 43 -13 3 -19 14 -19
31 0 21 -5 26 -24 26 -13 0 -29 -6 -35 -14z"/>
<path d="M12360 16398 c-58 -40 -75 -72 -75 -141 0 -114 61 -171 180 -170 111
1 167 52 173 158 6 114 -57 175 -179 175 -52 0 -73 -5 -99 -22z m131 -40 c17
-33 18 -191 0 -211 -18 -23 -48 -21 -61 2 -14 27 -13 174 2 206 14 31 43 33
59 3z"/>
<path d="M12785 16406 c-11 -7 -39 -19 -63 -26 -43 -14 -52 -29 -28 -49 10 -8
15 -41 18 -106 3 -82 6 -97 26 -117 30 -30 90 -30 131 0 37 27 44 27 56 0 9
-18 19 -21 78 -22 38 -1 71 2 73 6 3 4 -2 21 -11 37 -11 22 -15 62 -15 156 0
139 -5 150 -57 121 -15 -8 -45 -22 -67 -31 -38 -15 -38 -15 -22 -40 27 -42 19
-158 -12 -170 -34 -13 -47 21 -52 138 -5 120 -13 133 -55 103z"/>
<path d="M13215 16406 c-11 -7 -39 -19 -63 -26 -47 -15 -48 -18 -27 -46 21
-28 20 -167 -2 -205 -9 -15 -14 -31 -10 -35 9 -9 164 -12 178 -4 8 5 6 16 -5
38 -24 47 -22 152 5 186 25 31 42 33 80 5 35 -25 45 -20 60 31 16 52 1 70 -56
70 -35 0 -49 -6 -72 -30 l-28 -30 -5 27 c-6 32 -27 39 -55 19z"/>
<path d="M13908 16399 c-37 -19 -57 -56 -43 -78 12 -21 50 -11 85 23 34 34 48
40 81 37 21 -1 33 -30 19 -46 -6 -8 -41 -23 -78 -34 -70 -21 -113 -55 -127
-99 -8 -26 10 -85 31 -103 23 -19 89 -14 127 10 l35 22 15 -21 c12 -17 27 -21
82 -24 76 -3 83 3 60 57 -9 21 -15 67 -15 109 0 84 -12 114 -59 145 -45 31
-157 32 -213 2z m148 -134 c10 -26 -6 -84 -26 -95 -44 -23 -80 32 -47 72 12
16 46 37 60 38 4 0 10 -7 13 -15z"/>
<path d="M14792 16403 c-56 -28 -77 -68 -77 -150 0 -57 4 -77 21 -100 35 -46
78 -65 148 -65 112 0 172 51 183 157 5 52 -29 121 -76 152 -42 28 -148 32
-199 6z m122 -45 c19 -26 22 -177 6 -209 -13 -23 -43 -25 -61 -2 -18 21 -19
179 -1 211 16 28 37 28 56 0z"/>
<path d="M15205 16406 c-45 -20 -73 -56 -84 -108 -24 -106 23 -186 122 -208
137 -29 232 45 225 175 -4 71 -30 114 -82 139 -41 19 -139 21 -181 2z m116
-43 c10 -11 14 -45 14 -108 0 -97 -10 -125 -46 -125 -29 0 -41 45 -37 136 4
103 32 142 69 97z"/>
<path d="M15723 16401 c-37 -23 -55 -53 -47 -75 10 -26 46 -18 84 18 43 42 70
51 96 32 28 -22 8 -47 -52 -67 -108 -35 -146 -70 -146 -133 0 -48 16 -73 58
-86 31 -11 41 -9 85 13 49 24 50 24 64 4 12 -16 25 -20 82 -20 66 0 68 0 65
24 -2 13 -7 67 -11 119 -8 102 -15 122 -56 160 -23 22 -37 25 -108 28 -68 2
-87 0 -114 -17z m147 -160 c0 -75 -70 -110 -86 -44 -6 21 -1 32 25 55 44 40
61 37 61 -11z"/>
<path d="M16155 16404 c-11 -8 -36 -19 -57 -25 -38 -10 -47 -26 -28 -45 12
-12 8 -321 -4 -366 l-8 -27 86 0 c67 0 88 4 93 15 3 8 0 20 -6 27 -6 7 -13 39
-17 70 -5 46 -4 57 8 57 8 0 19 -5 25 -11 6 -6 29 -12 51 -13 130 -3 190 196
89 302 -25 26 -39 32 -72 32 -27 0 -48 -7 -63 -20 -12 -11 -26 -20 -32 -20 -5
0 -10 9 -10 20 0 24 -26 26 -55 4z m131 -85 c39 -63 10 -192 -39 -173 -37 14
-49 131 -17 169 15 18 46 20 56 4z"/>
<path d="M16585 16411 c-3 -5 -28 -17 -55 -26 -49 -16 -60 -31 -39 -52 17 -17
12 -318 -6 -354 -8 -15 -11 -30 -7 -33 4 -3 45 -5 91 -5 63 0 83 3 88 15 3 8
1 20 -5 27 -15 18 -26 113 -14 121 5 3 24 -2 42 -10 79 -40 180 50 180 159 0
44 -24 108 -52 136 -40 41 -102 44 -138 6 -25 -27 -40 -25 -40 6 0 20 -34 27
-45 10z m124 -98 c9 -18 14 -58 12 -104 -1 -36 -31 -72 -53 -64 -37 14 -49
133 -18 170 17 20 47 19 59 -2z"/>
<path d="M16974 16405 c-53 -27 -68 -95 -22 -95 12 0 41 18 65 41 34 31 49 39
66 33 63 -19 44 -51 -49 -81 -107 -35 -150 -95 -121 -165 11 -27 24 -39 52
-48 32 -11 41 -9 86 13 50 24 50 24 64 4 12 -17 25 -20 82 -20 66 0 68 1 65
24 -2 13 -7 65 -12 114 -10 105 -18 131 -55 165 -23 22 -37 25 -108 28 -60 2
-91 -2 -113 -13z m146 -165 c0 -27 -7 -47 -20 -60 -24 -24 -34 -25 -54 -4 -29
28 -16 68 29 92 36 20 45 14 45 -28z"/>
<path d="M17405 16404 c-11 -8 -36 -19 -57 -25 -39 -10 -47 -26 -26 -47 15
-15 12 -165 -4 -205 -8 -21 -8 -31 0 -36 13 -8 161 -6 169 3 4 3 1 17 -5 31
-7 14 -12 59 -12 100 0 62 4 79 20 95 11 11 26 20 34 20 7 0 25 -9 39 -20 14
-11 30 -20 35 -20 15 0 34 54 30 86 -3 27 -7 29 -49 32 -38 2 -52 -2 -77 -23
-37 -31 -42 -31 -42 0 0 29 -24 33 -55 9z"/>
<path d="M17762 16403 c-47 -23 -75 -67 -80 -128 -8 -101 33 -161 129 -185 69
-17 150 1 184 42 52 61 9 91 -49 34 -39 -39 -93 -49 -116 -21 -21 25 -4 42 50
48 70 8 111 34 129 80 13 34 12 42 -2 73 -25 52 -69 74 -147 74 -39 0 -78 -7
-98 -17z m118 -42 c5 -11 10 -36 10 -56 0 -74 -48 -104 -69 -44 -14 39 -14 60
-1 93 11 31 45 35 60 7z"/>
<path d="M7814 16310 c-1302 -5 -1343 -6 -1363 -24 -27 -25 -27 -60 1 -88 l21
-21 966 6 c531 4 1406 7 1944 7 l978 0 24 25 c30 29 32 54 5 83 l-21 22 -607
-2 c-334 -2 -1211 -5 -1948 -8z"/>
<path d="M12035 15410 c-11 -4 -39 -14 -63 -21 -24 -7 -48 -21 -54 -32 -8 -17
-4 -26 32 -58 39 -36 44 -38 63 -24 37 26 63 17 134 -45 53 -47 74 -60 100
-60 17 0 35 5 38 10 12 19 -57 109 -92 122 -23 8 -33 18 -33 33 0 27 -59 85
-85 84 -11 0 -29 -4 -40 -9z"/>
<path d="M11332 14980 c0 -14 2 -19 5 -12 2 6 2 18 0 25 -3 6 -5 1 -5 -13z"/>
</g>
</svg>
